<svg width="375" height="812" viewBox="0 0 375 812" fill="none" xmlns="http://www.w3.org/2000/svg">
<g clip-path="url(#clip0_4504_1243)">
<rect width="375" height="812" fill="url(#paint0_linear_4504_1243)"/>
<path opacity="0.3" d="M-297.554 -32.5494C-196.13 -133.973 -31.6902 -133.973 69.7332 -32.5494C171.157 68.8741 171.157 233.314 69.7332 334.737C-31.6902 436.161 -196.13 436.161 -297.554 334.737C-398.977 233.314 -398.977 68.8741 -297.554 -32.5494ZM36.6705 301.675C119.834 218.511 119.834 83.6768 36.6705 0.51341C-46.4929 -82.65 -181.327 -82.65 -264.491 0.51341C-347.654 83.6768 -347.654 218.511 -264.491 301.675C-181.327 384.838 -46.4929 384.838 36.6705 301.675Z" fill="url(#paint1_linear_4504_1243)" fill-opacity="0.9"/>
<path opacity="0.15" d="M128.671 -91.4436C262.631 42.5169 262.631 259.71 128.671 393.67C-5.28962 527.631 -222.483 527.631 -356.443 393.67C-490.404 259.71 -490.404 42.5168 -356.443 -91.4437C-222.482 -225.404 -5.28956 -225.404 128.671 -91.4436ZM-312.774 350.001C-202.931 459.843 -24.8411 459.843 85.0015 350.001C194.844 240.158 194.844 62.0683 85.0015 -47.7742C-24.841 -157.617 -202.931 -157.617 -312.774 -47.7742C-422.616 62.0683 -422.616 240.158 -312.774 350.001Z" fill="url(#paint2_linear_4504_1243)" fill-opacity="0.9"/>
<circle opacity="0.15" cx="-113.885" cy="151.113" r="176.226" transform="rotate(-45 -113.885 151.113)" fill="url(#paint3_linear_4504_1243)" fill-opacity="0.9"/>
</g>
<defs>
<linearGradient id="paint0_linear_4504_1243" x1="187.738" y1="812" x2="485.185" y2="682.336" gradientUnits="userSpaceOnUse">
<stop stop-color="#CC204A"/>
<stop offset="1" stop-color="#FD4E25"/>
</linearGradient>
<linearGradient id="paint1_linear_4504_1243" x1="-297.554" y1="334.737" x2="69.7332" y2="-32.5494" gradientUnits="userSpaceOnUse">
<stop stop-color="white" stop-opacity="0"/>
<stop offset="0.497674" stop-color="white" stop-opacity="0.8"/>
<stop offset="1" stop-color="white" stop-opacity="0"/>
</linearGradient>
<linearGradient id="paint2_linear_4504_1243" x1="-466" y1="116.999" x2="270.5" y2="150.999" gradientUnits="userSpaceOnUse">
<stop stop-color="white" stop-opacity="0"/>
<stop offset="0.497674" stop-color="white" stop-opacity="0.8"/>
<stop offset="1" stop-color="white" stop-opacity="0"/>
</linearGradient>
<linearGradient id="paint3_linear_4504_1243" x1="-113.885" y1="-25.1124" x2="-113.885" y2="327.339" gradientUnits="userSpaceOnUse">
<stop stop-color="white" stop-opacity="0"/>
<stop offset="0.497674" stop-color="white" stop-opacity="0.8"/>
<stop offset="1" stop-color="white" stop-opacity="0"/>
</linearGradient>
<clipPath id="clip0_4504_1243">
<rect width="375" height="812" fill="white"/>
</clipPath>
</defs>
</svg>
