<svg width="375" height="282" viewBox="0 0 375 282" fill="none" xmlns="http://www.w3.org/2000/svg">
<g clip-path="url(#clip0_3544_7355)">
<path d="M375 0H0V281.25H375V0Z" fill="white"/>
<path d="M120.736 60.593L147.19 79.8117C147.286 79.7156 147.335 79.4742 147.286 79.282L138.267 49.043L121.219 57.1922C121.027 57.2648 120.591 60.4477 120.736 60.593Z" fill="white"/>
<path d="M147.117 79.8345L119.266 65.9688C119.194 65.922 119.145 65.8493 119.168 65.7532L121.073 57.3134C121.099 57.1681 121.268 57.1212 121.388 57.2173L147.213 79.7149C147.263 79.7876 147.19 79.8837 147.117 79.8345Z" fill="#231F20"/>
<path d="M251.096 51.6502L227.6 68.7197C227.516 68.633 227.471 68.4197 227.516 68.2486L235.524 41.3916L250.667 48.6291C250.838 48.6947 251.223 51.5213 251.096 51.6502Z" fill="white"/>
<path d="M227.665 68.7412L252.401 56.4271C252.464 56.3826 252.509 56.3193 252.485 56.2326L250.795 48.7373C250.772 48.6084 250.622 48.5662 250.516 48.6529L227.578 68.6334C227.536 68.699 227.599 68.7834 227.665 68.7412Z" fill="#231F20"/>
<path d="M46.6953 224.005C46.6953 224.005 105.61 142.342 214.28 142.342C319.323 142.342 329.171 224.005 329.171 224.005H46.6953Z" fill="#FFD4CA"/>
<path opacity="0.3" d="M216.181 224.005C208.234 192.074 176.79 165.261 131.178 159.475C75.8938 183.395 46.6953 224.005 46.6953 224.005H216.181Z" fill="#FFD4CA"/>
<path d="M273.627 223.882C281.441 223.882 287.798 217.526 287.798 209.714V107.954C287.798 100.139 281.441 93.7832 273.627 93.7832H101.104C93.2898 93.7832 86.9336 100.139 86.9336 107.954V209.714C86.9336 217.526 93.2898 223.882 101.104 223.882H273.627Z" fill="url(#paint0_linear_3544_7355)"/>
<path d="M255.499 174.171C261.216 174.171 265.866 169.521 265.866 163.804C265.866 158.088 261.216 153.436 255.499 153.436H217.777C212.06 153.436 207.41 158.088 207.41 163.804C207.41 169.521 212.06 174.171 217.777 174.171H255.499Z" fill="#E5EAEC"/>
<path d="M152.451 207.506C161.716 207.506 169.253 199.971 169.253 190.706C169.253 181.441 161.716 173.906 152.451 173.906C143.188 173.906 135.648 181.441 135.648 190.706C135.648 199.971 143.188 207.506 152.451 207.506Z" fill="white"/>
<path d="M127.712 207.506C136.977 207.506 144.515 199.971 144.515 190.706C144.515 181.441 136.977 173.906 127.712 173.906C118.45 173.906 110.91 181.441 110.91 190.706C110.91 199.971 118.45 207.506 127.712 207.506Z" fill="white"/>
<path d="M264.68 138.656H236.023" stroke="#FCFCFC" stroke-width="0.9375" stroke-linecap="round" stroke-linejoin="round"/>
<path d="M222.339 138.656H193.682" stroke="#FCFCFC" stroke-width="0.9375" stroke-linecap="round" stroke-linejoin="round"/>
<path d="M139.704 138.656H111.047" stroke="#FCFCFC" stroke-width="0.9375" stroke-linecap="round" stroke-linejoin="round"/>
<path d="M180.991 138.656H152.334" stroke="#FCFCFC" stroke-width="0.9375" stroke-linecap="round" stroke-linejoin="round"/>
<path d="M187.5 113.963C204.618 113.963 218.493 100.088 218.493 82.9693C218.493 65.8506 204.618 51.9756 187.5 51.9756C170.381 51.9756 156.506 65.8506 156.506 82.9693C156.506 100.088 170.381 113.963 187.5 113.963Z" fill="#FFC930"/>
<path d="M191.153 83.2106C193.52 83.7309 196.654 85.4981 196.654 89.834C196.654 92.445 195.489 94.0106 194.205 94.934C192.972 95.8036 191.498 96.27 189.988 96.2583H179.992V70.2028H188.502C188.502 70.2028 196.654 69.9215 196.654 76.7864C196.694 82.3668 191.153 83.2106 191.153 83.2106Z" stroke="#231F20" stroke-width="0.9375" stroke-linecap="round" stroke-linejoin="round"/>
<path d="M179.953 83.2109H191.154" stroke="#231F20" stroke-width="0.9375" stroke-linecap="round" stroke-linejoin="round"/>
<path d="M184.961 66.3877V70.2033" stroke="#231F20" stroke-width="0.9375" stroke-linecap="round" stroke-linejoin="round"/>
<path d="M184.656 96.5176V99.8082" stroke="#231F20" stroke-width="0.9375" stroke-linecap="round" stroke-linejoin="round"/>
<path d="M189.596 66.4414V69.95" stroke="#231F20" stroke-width="0.9375" stroke-linecap="round" stroke-linejoin="round"/>
<path d="M189.217 96.2988V99.8613" stroke="#231F20" stroke-width="0.9375" stroke-linecap="round" stroke-linejoin="round"/>
<path d="M235.891 209.462V199.527V189.594H202.033V199.726H168.271V209.462V223.965H269.655V209.462H235.891Z" fill="#CECECE"/>
<path d="M235.891 209.461V223.964" stroke="#272727" stroke-width="0.9375" stroke-linecap="round" stroke-linejoin="round"/>
<path d="M202.033 199.727V223.966" stroke="#272727" stroke-width="0.9375" stroke-linecap="round" stroke-linejoin="round"/>
<path opacity="0.3" d="M235.891 209.461V223.964L238.607 209.461H235.891Z" fill="#272727"/>
<path opacity="0.3" d="M202.032 199.727V216.911L198.732 199.727H202.032Z" fill="#272727"/>
<path d="M276.309 205.018C274.499 200.131 270.053 193.936 266.113 188.426C265.49 187.543 264.845 186.678 264.243 185.813L264.203 185.773L282.442 181.369L283.267 181.77C284.071 182.897 284.695 183.863 285.337 184.887C287.088 187.702 288.655 190.618 290.003 193.655C290.666 195.162 291.29 196.65 291.892 198.239L290.465 209.382L276.309 205.018Z" fill="#C65A42"/>
<path opacity="0.3" d="M268.625 191.946C267.781 190.758 266.937 189.572 266.112 188.407C265.489 187.521 265.207 187.139 264.584 186.275L264.221 185.752L280.531 181.006L280.571 181.086C277.151 182.937 274.074 185.37 271.482 188.246C269.59 190.357 268.725 191.925 268.707 191.946L268.664 192.005L268.625 191.946Z" fill="#222020"/>
<path d="M240.915 99.001C240.292 99.2026 239.629 99.3033 238.965 99.2822C237.156 99.2822 235.628 98.6588 234.883 97.6135C233.657 95.9447 233.636 93.9947 234.763 90.4557C234.641 90.294 233.776 89.1877 233.938 88.4846C234.039 88.0815 234.641 87.7791 235.708 87.6385L235.808 87.2963C236.371 85.6088 236.894 84.1205 237.517 82.8924C238.403 81.1651 240.976 81.6057 242.987 80.8416C244.314 80.319 244.234 80.2604 245.64 80.2791C248.357 80.2791 249.421 79.7776 251.211 81.3854C254.066 83.9588 253.665 88.2619 253.161 90.8963L252.7 91.2385C252.458 92.7877 252.92 97.8151 252.297 100.911V100.951L241.096 101.574L240.695 100.367L240.915 99.001Z" fill="#C65A42"/>
<path opacity="0.3" d="M240.916 98.9992L242.465 98.3758C242.523 98.3547 242.566 98.3359 242.624 98.3359C242.746 98.3359 242.866 98.3969 242.927 98.4977C242.988 98.5961 243.006 98.718 242.948 98.8375L241.921 101.172L240.695 100.366L240.916 98.9992Z" fill="#222020"/>
<path d="M239.629 206.124C239.568 204.575 239.387 203.288 239.308 202.726C238.926 200.03 238.462 196.733 237.859 192.69L241.72 159.711L255.053 187.18C255.395 188.708 255.918 191.363 256.12 192.751C256.621 196.027 256.884 199.327 256.923 202.644C256.923 203.771 256.942 204.917 256.902 206.082L250.387 217.625L239.629 206.124Z" fill="#C65A42"/>
<path opacity="0.3" d="M240.312 181.892L241.618 161.661C241.66 161.138 242.363 160.997 242.583 161.459L255.031 187.14C255.052 187.179 255.071 187.219 255.071 187.261C255.153 187.622 255.233 188.044 255.312 188.508C255.474 189.272 255.636 190.135 255.776 190.901C255.816 191.082 255.737 191.262 255.594 191.382L251.553 194.7C251.333 194.881 251.009 194.841 250.829 194.64L240.392 182.274C240.331 182.152 240.291 182.011 240.312 181.892Z" fill="#222020"/>
<path d="M230.94 220.742L230.842 220.541C231.224 219.999 231.646 219.535 232.147 219.134C232.41 218.933 232.71 218.67 233.073 218.389C234.439 217.304 236.31 215.816 237.578 214.489C239.085 212.879 239.79 209.982 239.629 206.122V206.082H243.369C244.876 206.082 246.264 206.905 246.988 208.212L250.145 213.985C250.166 214.006 250.185 214.006 250.185 213.985L251.01 209.48C251.373 207.528 253.082 206.101 255.071 206.101H256.883V206.141C256.743 211.009 256.239 215.797 255.313 220.562C255.313 220.562 255.313 220.562 255.313 220.583L255.172 220.742H255.154H230.94Z" fill="white"/>
<path d="M208.48 114.485C207.615 112.755 207.172 111.548 207.092 111.368C206.851 111.307 204.739 110.784 202.909 108.11C202.808 108.311 202.426 108.914 201.741 108.914C201.259 108.914 200.736 108.632 200.152 108.049C198.765 106.661 198.584 105.677 198.685 105.093C198.746 104.671 198.987 104.329 199.348 104.128C199.088 103.483 199.067 102.921 199.29 102.438C199.449 102.077 199.752 101.775 200.134 101.594C199.47 100.225 200.455 99.3019 200.696 99.1004C200.335 98.9199 200.012 98.7395 199.691 98.5566C197.741 97.5324 196.473 96.8691 196.473 95.9832C196.473 95.5801 196.735 95.0996 197.982 95.0996C199.33 95.0996 201.5 95.7019 203.792 96.7074C206.206 97.7527 208.48 99.1402 210.509 100.809C212.3 102.337 214.491 104.47 217.147 107.245L217.126 107.646L208.92 114.625L208.48 114.485Z" fill="#C65A42"/>
<path d="M260.261 139.641C258.03 136.304 255.616 134.574 255.435 134.434L236.634 134.293L236.573 134.131L234.32 123.594C233.716 124.058 228.065 128.422 223.502 128.422C223.361 128.422 223.22 128.422 223.08 128.401C220.103 128.22 214.251 126.188 208.499 114.505L208.48 114.486L217.148 107.246L217.166 107.265C220.284 110.544 222.939 113.581 223.26 113.942C230.741 104.129 236.854 102.662 239.83 102.662C239.91 102.662 239.99 102.662 240.051 102.662H240.173C240.191 102.662 240.212 102.662 240.231 102.662L240.695 100.367H252.62C252.62 100.367 252.358 101.675 252.297 101.956C252.74 102.017 256.441 102.662 258.993 105.477C260.12 106.684 264.041 108.27 265.591 112.252C266.535 114.627 265.108 118.667 265.731 120.88C266.233 122.67 266.615 124.358 266.837 125.827C267.822 132.102 264.283 137.511 260.301 139.623L260.261 139.641Z" fill="#CC204A"/>
<path opacity="0.3" d="M255.434 134.432L255.452 134.13L257.445 122.709C259.073 123.293 259.373 125.343 259.697 127.535C259.957 129.243 260.22 130.994 261.084 132.382C262.673 134.934 264.544 135.74 264.544 135.74C263.377 137.409 261.888 138.775 260.32 139.6C260.32 139.6 255.473 134.454 255.434 134.432Z" fill="black"/>
<path d="M266.292 120.919C265.99 120.919 265.748 120.879 265.748 120.879C265.748 120.879 265.308 119.452 265.186 119.109C263.979 115.812 263.597 114.464 261.485 109.84C259.917 110.604 257.604 110.965 255.855 110.946C253.502 110.925 251.17 110.482 249.199 109.216C247.53 108.171 245.419 106.017 244.875 101.595C244.676 99.9656 244.716 98.3156 244.957 96.7078L244.976 96.6867C244.976 96.6867 250.366 94.2539 249.178 90.6961C248.878 89.7703 248.074 89.2875 246.827 89.2875C244.997 89.2875 242.763 90.3117 242.763 90.3117C242.745 90.293 240.511 87.6188 242.182 84.9023C242.222 84.8438 242.161 84.7617 242.1 84.7828C241.577 84.9023 241.076 84.9844 240.532 84.9844C237.977 84.9844 237.516 82.9125 237.516 82.9125V82.8914C238.481 81.0024 239.688 79.875 241.516 79.193C242.845 78.6703 244.252 78.4078 245.66 78.4289C248.374 78.4289 250.969 79.3336 252.778 80.9414C255.495 83.3953 254.97 87.9398 254.367 91.0969L254.348 91.1578C255.354 91.0172 256.359 90.9352 257.365 90.9352C260.862 90.9352 267.096 91.8211 269.571 97.7133C270.837 100.77 271.2 105.314 268.383 108.975C268.866 109.134 272.426 110.421 272.988 113.217C273.391 115.008 272.927 116.878 271.762 118.284C270.434 119.852 268.242 120.919 266.292 120.919Z" fill="#231F20"/>
<path d="M237.858 192.689C237.596 190.92 237.336 189.171 237.073 187.482C236.511 183.661 235.988 180.122 235.725 178.231C232.993 158.384 235.404 138.715 236.571 134.171V134.131H255.453H255.474C262.472 140.084 264.926 147.303 268.505 157.437C270.275 162.425 271.903 165.542 274.899 170.63C276.207 172.843 277.735 174.692 279.223 176.482C280.027 177.448 280.772 178.353 281.454 179.276C282.139 180.181 282.741 180.987 283.285 181.77L250.99 189.554C250.969 189.554 250.969 189.554 250.969 189.532L242.886 166.245C242.886 166.226 242.846 166.226 242.846 166.245L242.946 191.464C242.946 191.482 242.946 191.482 242.925 191.482L237.858 192.689Z" fill="#FFC930"/>
<path d="M242.807 166.245L240.332 134.131" stroke="#322B19" stroke-width="0.9375" stroke-linecap="round" stroke-linejoin="round"/>
<path d="M229.794 223.898V223.858C229.775 222.672 230.136 221.526 230.82 220.56L230.841 220.539H255.334V220.581C255.132 221.685 254.851 222.791 254.53 223.858L229.794 223.898Z" fill="black"/>
<path d="M273.472 223.88C272.989 222.793 272.848 221.567 273.111 220.381L273.23 220.259L295.43 210.605L295.592 210.685C295.833 211.791 296.035 212.94 296.176 214.086V214.107L273.472 223.88Z" fill="black"/>
<path d="M273.191 220.341C273.151 220.36 273.111 220.32 273.13 220.28C273.27 219.696 273.472 219.113 273.753 218.571C273.875 218.33 274.034 218.028 274.196 217.707C274.981 216.197 276.186 213.926 276.892 212.136C277.595 210.305 277.414 207.994 276.327 205.036C276.327 205.018 276.327 204.996 276.348 204.978L279.927 203.389C281.256 202.805 282.802 202.986 283.988 203.829L288.875 207.329C288.915 207.35 288.957 207.329 288.957 207.289L288.273 203.267C287.952 201.378 288.957 199.507 290.727 198.743L291.913 198.221L291.931 198.261C293.462 202.282 294.688 206.424 295.613 210.626C295.613 210.647 295.613 210.668 295.592 210.687L273.191 220.341Z" fill="white"/>
<path d="M239.225 211.15L242.965 211.933" stroke="black" stroke-width="0.9375" stroke-linecap="round" stroke-linejoin="round"/>
<path d="M238.16 213.742L241.357 216.055" stroke="black" stroke-width="0.9375" stroke-linecap="round" stroke-linejoin="round"/>
<path d="M250.206 213.965L249.24 220.539" stroke="black" stroke-width="0.9375" stroke-linecap="round" stroke-linejoin="round"/>
<path d="M288.936 207.27L290.323 213" stroke="black" stroke-width="0.9375" stroke-linecap="round" stroke-linejoin="round"/>
<path d="M277.312 209.643L280.369 209.924" stroke="black" stroke-width="0.9375" stroke-linecap="round" stroke-linejoin="round"/>
<path d="M276.891 212.156L280.008 213.342" stroke="black" stroke-width="0.9375" stroke-linecap="round" stroke-linejoin="round"/>
<path d="M257.446 122.709L255.454 134.13H236.572" stroke="black" stroke-width="0.9375" stroke-linecap="round" stroke-linejoin="round"/>
<path d="M260.058 129.084L256.418 128.439" stroke="black" stroke-width="0.9375" stroke-linecap="round" stroke-linejoin="round"/>
<path d="M223.259 113.941L221.248 116.616" stroke="black" stroke-width="0.9375" stroke-linecap="round" stroke-linejoin="round"/>
<path d="M234.32 123.594L238.544 119.633" stroke="black" stroke-width="0.9375" stroke-linecap="round" stroke-linejoin="round"/>
<path d="M200.695 99.0996C202.345 99.2215 204.054 99.6434 205.561 100.325" stroke="#222020" stroke-width="0.9375" stroke-linecap="round" stroke-linejoin="round"/>
<path d="M200.133 101.596C202.083 101.715 204.555 102.54 204.555 102.54" stroke="#222020" stroke-width="0.9375" stroke-linecap="round" stroke-linejoin="round"/>
<path d="M199.348 104.128C200.454 103.927 202.969 104.611 203.351 104.953" stroke="#222020" stroke-width="0.9375" stroke-linecap="round" stroke-linejoin="round"/>
<path d="M240.914 99.0004C241.92 98.5785 242.463 98.377 242.463 98.377" stroke="#222020" stroke-width="0.9375" stroke-linecap="round" stroke-linejoin="round"/>
<path d="M245.379 92.4844L243.971 93.2883" stroke="#222020" stroke-width="0.9375" stroke-linecap="round" stroke-linejoin="round"/>
<path d="M261.486 109.841C263.497 109.034 263.68 108.172 263.68 108.172" stroke="#181818" stroke-width="0.9375" stroke-linecap="round" stroke-linejoin="round"/>
<path d="M268.383 108.975C267.9 109.558 267.277 110.1 266.695 110.582" stroke="#181818" stroke-width="0.9375" stroke-linecap="round" stroke-linejoin="round"/>
<path d="M254.349 91.1562L253.625 94.2922" stroke="#181818" stroke-width="0.9375" stroke-linecap="round" stroke-linejoin="round"/>
<path d="M237.737 91.4785C237.135 92.2824 235.928 92.2824 235.928 92.2824" stroke="#222020" stroke-width="0.9375" stroke-linecap="round" stroke-linejoin="round"/>
<path d="M237.838 88.8648C238.116 88.8648 238.341 88.6398 238.341 88.3609C238.341 88.0844 238.116 87.8594 237.838 87.8594C237.561 87.8594 237.336 88.0844 237.336 88.3609C237.336 88.6398 237.561 88.8648 237.838 88.8648Z" fill="#231F20"/>
<path opacity="0.3" d="M234.32 123.594L236.915 121.161C237.074 121.041 237.618 120.98 237.82 120.98C238.101 120.98 238.342 121.283 238.523 121.503C238.703 121.705 238.764 121.986 238.703 122.267C238.08 125.363 235.787 129.828 235.769 129.889L235.687 130.051L234.32 123.594Z" fill="black"/>
</g>
<defs>
<linearGradient id="paint0_linear_3544_7355" x1="187.493" y1="223.882" x2="248.187" y2="135.43" gradientUnits="userSpaceOnUse">
<stop stop-color="#CC204A"/>
<stop offset="1" stop-color="#FD4E25"/>
</linearGradient>
<clipPath id="clip0_3544_7355">
<rect width="375" height="281.25" fill="white"/>
</clipPath>
</defs>
</svg>
