<svg width="191" height="23" viewBox="0 0 191 23" fill="none" xmlns="http://www.w3.org/2000/svg">
<path d="M49.7327 22.2809C47.6429 22.2809 45.8092 21.8199 44.2316 20.8979C42.6745 19.976 41.4657 18.6852 40.6052 17.0257C39.7447 15.3456 39.3145 13.3788 39.3145 11.1251C39.3145 9.42455 39.5603 7.89819 40.052 6.54597C40.5437 5.17326 41.2403 4.00544 42.1418 3.04249C43.0638 2.05906 44.1599 1.31124 45.4302 0.799039C46.7209 0.266346 48.1551 0 49.7327 0C51.843 0 53.6767 0.460984 55.2338 1.38295C56.7909 2.28443 57.9997 3.56494 58.8602 5.22448C59.7207 6.88402 60.1509 8.84064 60.1509 11.0943C60.1509 12.7949 59.9051 14.3315 59.4133 15.7042C58.9216 17.0769 58.2148 18.255 57.2928 19.2384C56.3913 20.2218 55.2952 20.9799 54.0045 21.5126C52.7342 22.0248 51.3103 22.2809 49.7327 22.2809ZM49.7327 18.9003C51.0644 18.9003 52.1913 18.593 53.1132 17.9784C54.0557 17.3637 54.7728 16.4725 55.2645 15.3047C55.7767 14.1368 56.0328 12.7436 56.0328 11.1251C56.0328 8.66649 55.4796 6.76109 54.3733 5.40887C53.2874 4.05666 51.7405 3.38055 49.7327 3.38055C48.4214 3.38055 47.2946 3.68787 46.3521 4.30251C45.4097 4.89667 44.6824 5.77766 44.1701 6.94549C43.6784 8.09282 43.4326 9.48602 43.4326 11.1251C43.4326 13.5632 43.9858 15.4686 45.0921 16.8413C46.1985 18.214 47.7453 18.9003 49.7327 18.9003Z" fill="black"/>
<path d="M68.8017 21.9736C68.1256 21.9736 67.6032 21.7994 67.2344 21.4511C66.8861 21.0823 66.7119 20.5599 66.7119 19.8838V2.39711C66.7119 1.72101 66.8861 1.2088 67.2344 0.860503C67.6032 0.491716 68.1256 0.307322 68.8017 0.307322H76.1775C77.6936 0.307322 78.9843 0.532692 80.0497 0.983432C81.1151 1.43417 81.9244 2.07955 82.4776 2.91956C83.0512 3.75958 83.3381 4.7635 83.3381 5.93132C83.3381 7.24256 82.959 8.34892 82.201 9.2504C81.4429 10.1519 80.4083 10.7563 79.097 11.0636V10.6026C80.6131 10.828 81.7912 11.4017 82.6312 12.3236C83.4712 13.2456 83.8912 14.4442 83.8912 15.9193C83.8912 17.8452 83.2356 19.3408 81.9244 20.4062C80.6336 21.4511 78.8307 21.9736 76.5155 21.9736H68.8017ZM70.492 18.9925H76.0238C77.417 18.9925 78.4414 18.7262 79.097 18.1935C79.7526 17.6403 80.0804 16.8208 80.0804 15.7349C80.0804 14.6285 79.7526 13.809 79.097 13.2763C78.4414 12.7436 77.417 12.4773 76.0238 12.4773H70.492V18.9925ZM70.492 9.49626H75.5013C76.8536 9.49626 77.8575 9.24016 78.5131 8.72796C79.1892 8.19526 79.5273 7.41671 79.5273 6.39231C79.5273 5.3679 79.1892 4.59959 78.5131 4.08739C77.8575 3.5547 76.8536 3.28835 75.5013 3.28835H70.492V9.49626Z" fill="black"/>
<path d="M92.429 21.9736C91.7938 21.9736 91.3021 21.7994 90.9538 21.4511C90.6055 21.0823 90.4314 20.5804 90.4314 19.9452V2.21272C90.4314 1.5571 90.5953 1.06538 90.9231 0.737573C91.2714 0.389276 91.7631 0.215127 92.3982 0.215127C93.0334 0.215127 93.5148 0.389276 93.8426 0.737573C94.1909 1.06538 94.3651 1.5571 94.3651 2.21272V18.6237H103.277C103.831 18.6237 104.251 18.7672 104.537 19.054C104.845 19.3408 104.998 19.7506 104.998 20.2833C104.998 20.816 104.845 21.236 104.537 21.5433C104.251 21.8301 103.831 21.9736 103.277 21.9736H92.429Z" fill="black"/>
<path d="M112.339 21.9736C111.663 21.9736 111.14 21.7994 110.772 21.4511C110.423 21.0823 110.249 20.5599 110.249 19.8838V2.39711C110.249 1.72101 110.423 1.2088 110.772 0.860503C111.14 0.491716 111.663 0.307322 112.339 0.307322H123.31C123.823 0.307322 124.212 0.440495 124.478 0.706842C124.765 0.973188 124.909 1.35222 124.909 1.84393C124.909 2.35614 124.765 2.75566 124.478 3.04249C124.212 3.30884 123.823 3.44201 123.31 3.44201H114.029V9.40407H122.634C123.167 9.40407 123.567 9.53724 123.833 9.80358C124.099 10.0699 124.232 10.4592 124.232 10.9714C124.232 11.4836 124.099 11.8729 123.833 12.1392C123.567 12.4056 123.167 12.5388 122.634 12.5388H114.029V18.8389H123.31C123.823 18.8389 124.212 18.972 124.478 19.2384C124.765 19.5047 124.909 19.894 124.909 20.4062C124.909 20.9184 124.765 21.3077 124.478 21.574C124.212 21.8404 123.823 21.9736 123.31 21.9736H112.339Z" fill="black"/>
<path d="M133.114 22.2194C132.479 22.2194 131.988 22.0453 131.639 21.697C131.311 21.3282 131.148 20.8262 131.148 20.1911V2.30492C131.148 1.6493 131.322 1.15758 131.67 0.829771C132.018 0.481472 132.51 0.307322 133.145 0.307322H140.552C142.928 0.307322 144.762 0.901479 146.053 2.08979C147.343 3.27811 147.989 4.93765 147.989 7.06842C147.989 9.19918 147.343 10.869 146.053 12.0778C144.762 13.2661 142.928 13.8602 140.552 13.8602H135.081V20.1911C135.081 20.8262 134.917 21.3282 134.59 21.697C134.262 22.0453 133.77 22.2194 133.114 22.2194ZM135.081 10.7563H139.937C141.33 10.7563 142.385 10.449 143.102 9.83432C143.82 9.19918 144.178 8.27722 144.178 7.06842C144.178 5.85961 143.82 4.94789 143.102 4.33325C142.385 3.7186 141.33 3.41128 139.937 3.41128H135.081V10.7563Z" fill="black"/>
<path d="M151.721 22.2194C151.229 22.2194 150.83 22.1067 150.522 21.8814C150.235 21.656 150.061 21.3589 150 20.9901C149.938 20.6008 150.01 20.1706 150.215 19.6994L158.328 1.72101C158.595 1.12685 158.912 0.706842 159.281 0.460983C159.67 0.194637 160.111 0.0614637 160.602 0.0614637C161.074 0.0614637 161.494 0.194637 161.862 0.460983C162.252 0.706842 162.58 1.12685 162.846 1.72101L170.99 19.6994C171.215 20.1706 171.297 20.6008 171.236 20.9901C171.174 21.3794 171 21.6867 170.713 21.9121C170.427 22.117 170.047 22.2194 169.576 22.2194C169.003 22.2194 168.552 22.0862 168.224 21.8199C167.917 21.5331 167.64 21.1028 167.394 20.5291L165.397 15.8886L167.056 16.9642H154.087L155.747 15.8886L153.78 20.5291C153.514 21.1233 153.237 21.5535 152.95 21.8199C152.663 22.0862 152.254 22.2194 151.721 22.2194ZM160.541 4.5791L156.238 14.8129L155.439 13.8295H165.704L164.936 14.8129L160.602 4.5791H160.541Z" fill="black"/>
<path d="M182.055 22.2194C181.42 22.2194 180.928 22.0453 180.58 21.697C180.252 21.3282 180.088 20.816 180.088 20.1603V10.8177L180.918 13.1841L173.511 2.7659C173.245 2.39712 173.122 2.00784 173.143 1.59808C173.184 1.16783 173.358 0.809283 173.665 0.522449C173.972 0.215125 174.403 0.0614637 174.956 0.0614637C175.366 0.0614637 175.734 0.163905 176.062 0.368788C176.41 0.573669 176.738 0.891235 177.046 1.32149L182.547 9.12747H181.686L187.218 1.32149C187.546 0.870747 187.863 0.553181 188.171 0.368788C188.478 0.163905 188.857 0.0614637 189.308 0.0614637C189.84 0.0614637 190.25 0.204881 190.537 0.491715C190.844 0.758061 190.998 1.09612 190.998 1.50588C191.018 1.91564 190.875 2.34589 190.568 2.79663L183.223 13.1841L184.022 10.8177V20.1603C184.022 21.5331 183.366 22.2194 182.055 22.2194Z" fill="black"/>
<path d="M26.4549 21.9737L20.791 11.283L28.071 0.205078H39.2328L26.4549 21.9737Z" fill="url(#paint0_linear_3544_7331)"/>
<path d="M12.7779 0.205078C14.6658 3.76865 16.5538 7.33223 18.4418 10.8958L11.1618 21.9737H0L12.7779 0.205078Z" fill="url(#paint1_linear_3544_7331)"/>
<defs>
<linearGradient id="paint0_linear_3544_7331" x1="20.8888" y1="21.9926" x2="36.9155" y2="-1.38373" gradientUnits="userSpaceOnUse">
<stop stop-color="#CF2149"/>
<stop offset="1" stop-color="#FD4E25"/>
</linearGradient>
<linearGradient id="paint1_linear_3544_7331" x1="-7.72801e-05" y1="21.9738" x2="17.2347" y2="9.25971" gradientUnits="userSpaceOnUse">
<stop stop-color="#CF2149"/>
<stop offset="1" stop-color="#FD4E25"/>
</linearGradient>
</defs>
</svg>
