<svg width="375" height="282" viewBox="0 0 375 282" fill="none" xmlns="http://www.w3.org/2000/svg">
<g clip-path="url(#clip0_3544_7430)">
<path d="M375 0H0V281.25H375V0Z" fill="white"/>
<path d="M143.705 138.705C154.376 138.705 163.027 130.054 163.027 119.38C163.027 108.709 154.376 100.059 143.705 100.059C133.032 100.059 124.381 108.709 124.381 119.38C124.381 130.054 133.032 138.705 143.705 138.705Z" fill="#FD4E25"/>
<path d="M143.341 108.854H143.311C141.255 108.905 137.357 110.269 137.357 115.083C137.357 115.993 138.093 116.726 139 116.726C139.91 116.726 140.643 115.993 140.643 115.083C140.643 112.458 142.722 112.17 143.371 112.139C145.469 112.149 146.772 113.276 146.772 115.104C146.772 116.447 146.214 116.932 144.747 117.875C143.435 118.711 141.45 119.991 141.543 122.886V123.361C141.543 124.271 142.277 125.004 143.186 125.004C144.086 125.004 144.829 124.28 144.85 123.371V122.792C144.82 121.831 145.232 121.479 146.536 120.643L146.554 120.633C147.951 119.733 150.058 118.36 150.058 115.104C150.058 111.425 147.3 108.854 143.341 108.854Z" fill="white"/>
<path d="M143.289 126.779C142.289 126.779 141.471 127.595 141.471 128.598C141.471 129.601 142.289 130.417 143.289 130.417C144.302 130.405 145.12 129.601 145.108 128.598C145.108 127.595 144.293 126.779 143.289 126.779Z" fill="white"/>
<path d="M59.3176 29.7432H101.449C103.029 29.7432 104.592 30.0525 106.05 30.6572C107.507 31.2596 108.834 32.1455 109.95 33.2635C111.065 34.3791 111.951 35.7033 112.554 37.1611C113.158 38.6213 113.468 40.1846 113.468 41.7619V83.8932C113.468 85.4705 113.158 87.0338 112.554 88.494C111.951 89.9518 111.065 91.276 109.95 92.3916C108.834 93.5096 107.507 94.3955 106.05 94.9979C104.592 95.6025 103.029 95.9119 101.449 95.9119H59.3176C57.7402 95.9119 56.177 95.6025 54.7191 94.9979C53.259 94.3955 51.9348 93.5096 50.8191 92.3916C49.7012 91.276 48.8176 89.9518 48.2129 88.494C47.6082 87.0338 47.2988 85.4705 47.2988 83.8932V41.7619C47.2988 40.1846 47.6082 38.6213 48.2129 37.1611C48.8176 35.7033 49.7012 34.3791 50.8191 33.2635C51.9348 32.1455 53.259 31.2596 54.7191 30.6572C56.177 30.0525 57.7402 29.7432 59.3176 29.7432Z" fill="#4D4A4F"/>
<path d="M296.036 64.5508H338.168C339.747 64.5508 341.311 64.8602 342.768 65.4648C344.226 66.0672 345.553 66.9531 346.668 68.0687C347.784 69.1867 348.67 70.5109 349.272 71.9687C349.877 73.4289 350.186 74.9922 350.186 76.5695V118.701C350.186 120.278 349.877 121.841 349.272 123.299C348.67 124.759 347.784 126.084 346.668 127.199C345.553 128.317 344.226 129.201 342.768 129.805C341.311 130.41 339.747 130.72 338.168 130.72H296.036C294.459 130.72 292.896 130.41 291.438 129.805C289.978 129.201 288.653 128.317 287.538 127.199C286.42 126.084 285.536 124.759 284.932 123.299C284.327 121.841 284.018 120.278 284.018 118.701V76.5695C284.018 74.9922 284.327 73.4289 284.932 71.9687C285.536 70.5109 286.42 69.1867 287.538 68.0687C288.653 66.9531 289.978 66.0672 291.438 65.4648C292.896 64.8602 294.459 64.5508 296.036 64.5508Z" fill="url(#paint0_linear_3544_7430)"/>
<path d="M93.2705 76.7467C100.37 69.6475 100.37 58.1396 93.2705 51.0404C86.1713 43.9436 74.6635 43.9436 67.5666 51.0404C60.4674 58.1396 60.4674 69.6475 67.5666 76.7467C74.6635 83.8436 86.1713 83.8436 93.2705 76.7467Z" fill="#FFC930"/>
<path d="M80.4902 52.9268V56.2689" stroke="url(#paint1_linear_3544_7430)" stroke-width="0.9375" stroke-linecap="round" stroke-linejoin="round"/>
<path d="M80.4902 71.5273V74.8695" stroke="url(#paint2_linear_3544_7430)" stroke-width="0.9375" stroke-linecap="round" stroke-linejoin="round"/>
<path d="M83.9496 56.3418H79.0535C77.1457 56.3418 75.5918 57.8957 75.5918 59.8012C75.5918 61.3316 76.6043 62.6746 78.0645 63.1223L82.6793 64.4863C84.2098 64.934 85.2457 66.3473 85.2457 67.9246C85.2457 69.9027 83.6449 71.5035 81.6668 71.5035H76.4168" stroke="url(#paint3_linear_3544_7430)" stroke-width="0.9375" stroke-linecap="round" stroke-linejoin="round"/>
<path d="M336.815 110.382H297.363C294.649 110.382 292.432 108.182 292.432 105.449V89.8043C292.432 87.0902 294.63 84.873 297.363 84.873H336.815C339.529 84.873 341.746 87.0715 341.746 89.8043V105.449C341.746 108.163 339.546 110.382 336.815 110.382Z" fill="#4D4A4F"/>
<path d="M327.182 105.165C331.345 105.165 334.722 101.79 334.722 97.6277C334.722 93.4629 331.345 90.0879 327.182 90.0879C323.018 90.0879 319.643 93.4629 319.643 97.6277C319.643 101.79 323.018 105.165 327.182 105.165Z" fill="white"/>
<path d="M326.829 96.8828H323.742" stroke="#4D4A4F" stroke-width="0.9375" stroke-linecap="round" stroke-linejoin="round"/>
<path d="M326.829 98.373H323.742" stroke="#4D4A4F" stroke-width="0.9375" stroke-linecap="round" stroke-linejoin="round"/>
<path d="M329.38 99.667C328.227 100.785 326.401 100.785 325.283 99.6482C324.165 98.5139 324.165 96.6693 325.302 95.5514C326.418 94.4334 328.281 94.4334 329.399 95.5514" stroke="#4D4A4F" stroke-width="0.9375" stroke-linecap="round" stroke-linejoin="round"/>
<path d="M307.012 105.165C311.177 105.165 314.552 101.79 314.552 97.6277C314.552 93.4629 311.177 90.0879 307.012 90.0879C302.85 90.0879 299.475 93.4629 299.475 97.6277C299.475 101.79 302.85 105.165 307.012 105.165Z" fill="white"/>
<path d="M307.012 97.6277C306.215 97.6277 305.559 96.9879 305.559 96.1723C305.559 95.373 306.196 94.7168 307.012 94.7168C307.811 94.7168 308.467 95.3566 308.467 96.1723" stroke="#4D4A4F" stroke-width="0.9375" stroke-linecap="round" stroke-linejoin="round"/>
<path d="M307.012 97.6289C307.811 97.6289 308.467 98.2664 308.467 99.082C308.467 99.8813 307.827 100.538 307.012 100.538C306.215 100.538 305.559 99.8977 305.559 99.082" stroke="#4D4A4F" stroke-width="0.9375" stroke-linecap="round" stroke-linejoin="round"/>
<path d="M307.012 94.7531V94.0078" stroke="#4D4A4F" stroke-width="0.9375" stroke-linecap="round" stroke-linejoin="round"/>
<path d="M306.961 101.246V100.518" stroke="#4D4A4F" stroke-width="0.9375" stroke-linecap="round" stroke-linejoin="round"/>
<path d="M224.557 197.38C223.542 191.687 224.025 185.739 224.282 179.835C224.622 171.805 224.507 163.855 219.557 156.663L209.43 155.371L201.609 156.679C201.609 156.679 188.723 167.999 177.855 196.382C175.404 202.799 173.355 208.155 171.646 212.573L177.984 217.588L186.724 218.732C189.579 210.557 189.773 206.605 191.805 202.541C193.352 199.462 202.078 186.738 207.494 178.563C207.609 184.673 207.963 191.72 208.753 199.188C209.301 204.395 210.623 210.491 211.575 215.992L220.186 218.137L227.299 216.039C227.154 207.187 225.429 201.332 224.557 197.38Z" fill="#CECECE"/>
<path d="M216.124 107.734C213.461 106.413 211.35 106.478 209.704 107.139C207.656 107.816 206.043 108.96 205.204 110.831C204.642 112.089 204.239 113.411 203.899 114.299C203.866 114.379 203.803 114.428 203.721 114.445C203.35 114.475 202.336 114.62 202.19 115.089C202.012 115.654 202.561 116.427 202.802 116.718C202.868 116.798 202.884 116.894 202.835 116.976C201.804 119.345 201.593 120.911 202.108 122.345C202.544 123.571 203.803 125.088 207.351 124.893L207.14 125.845L207.576 126.588L218.17 126.733L218.929 125.828L219.494 123.184C219.494 123.184 219.944 117.346 220.09 116.282C220.476 113.331 220.589 109.977 216.124 107.734Z" fill="#935757"/>
<path opacity="0.3" d="M207.352 124.908L207.045 126.312C207.045 126.328 207.061 126.342 207.061 126.328L210.706 124.134C210.722 124.118 210.706 124.102 210.689 124.102C209.044 124.763 207.511 124.875 207.352 124.908C207.352 124.891 207.352 124.891 207.352 124.908Z" fill="#0D0D0D"/>
<path d="M211.575 230.263C211.189 230.699 210.753 231.102 210.319 231.439C207.336 233.795 205.238 233.729 204.947 238.229L223.606 237.648C223.606 237.648 225.654 236.148 226.411 230.326C226.686 228.165 226.929 225.554 227.105 222.554C227.105 222.554 227.105 222.538 227.089 222.538L219.446 220.635L212.56 222.538L212.543 222.554C212.897 226.15 212.754 228.971 211.575 230.263Z" fill="#935757"/>
<path d="M227.282 216.039L211.591 215.992C211.574 215.992 211.574 216.006 211.574 216.006C211.977 218.312 212.35 220.555 212.542 222.522C212.542 222.538 212.542 222.538 212.559 222.538H227.088C227.104 222.538 227.104 222.538 227.104 222.522C227.12 222.168 227.137 221.828 227.153 221.458C227.282 219.555 227.331 217.748 227.298 216.055C227.298 216.039 227.298 216.039 227.282 216.039Z" fill="white"/>
<path opacity="0.3" d="M207.464 170.435L207.222 170.353C206.254 170.048 205.237 170.627 204.996 171.612L201.061 188.175C203.318 184.819 205.607 181.418 207.494 178.563C207.431 175.626 207.431 172.887 207.464 170.435Z" fill="#A5A5A5"/>
<path opacity="0.3" d="M224.283 179.834C224.428 177.094 224.461 174.223 224.299 171.577C223.896 162.579 219.574 156.661 219.574 156.661L215.189 156.645L213.316 174.771L218.381 182.334C219.366 183.785 221.494 183.818 222.492 182.367L224.283 179.834Z" fill="#A5A5A5"/>
<path d="M163.888 229.262C163.258 229.988 162.452 230.633 161.615 231.198C158.437 233.359 155.809 234.261 155.535 238.325C155.535 238.341 155.535 238.341 155.549 238.341L175.258 237.905C175.37 237.826 178.691 235.616 181.626 230.246C182.514 228.617 183.433 226.763 184.335 224.764V224.748L177.723 219.376C177.723 219.376 177.723 219.376 177.707 219.376L169.258 218.586C169.258 218.586 169.241 218.586 169.241 218.602C167.001 224.199 165.355 227.57 163.888 229.262Z" fill="#935757"/>
<path d="M169.276 218.57L184.337 224.732C184.353 224.732 184.353 224.732 184.353 224.715C184.984 223.311 185.579 221.828 186.16 220.281C186.353 219.732 186.547 219.231 186.725 218.732C186.725 218.715 186.725 218.715 186.709 218.715L171.662 212.572C171.646 212.572 171.646 212.572 171.646 212.589C170.776 214.813 170 216.812 169.276 218.556C169.26 218.57 169.26 218.57 169.276 218.57Z" fill="white"/>
<path d="M170.709 236.584H163.759C163.743 236.584 163.743 236.584 163.743 236.567C163.743 234.714 162.709 232.457 161.629 231.214H161.615C158.437 233.375 154.34 234.842 154.082 238.89C154.082 238.907 154.082 238.907 154.098 238.907L176.048 238.923H176.064C176.177 238.778 178.741 235.599 181.642 230.279C181.642 230.263 181.642 230.263 181.626 230.246C175.563 229.358 171.339 233.375 170.709 236.584C170.725 236.584 170.725 236.584 170.709 236.584Z" fill="#FD4E25"/>
<path d="M228.609 109.89C232.408 107.418 233.8 102.817 231.717 99.6154C229.631 96.4115 224.864 95.8209 221.062 98.2935C217.263 100.764 215.873 105.365 217.957 108.569C220.04 111.77 224.81 112.363 228.609 109.89Z" fill="#231F20"/>
<path d="M163.793 122.474C161.843 121.748 160.472 121.813 161.47 123.475C161.681 123.829 161.906 124.152 162.164 124.457C162.213 124.523 162.164 124.602 162.084 124.586C159.891 124.199 153.811 123.006 153.778 125.104C153.778 125.167 153.731 125.216 153.666 125.216C152.506 125.392 152.102 126.555 152.522 127.232C152.538 127.265 152.538 127.295 152.506 127.328C151.296 128.151 152.231 129.297 152.407 129.505C152.423 129.522 152.44 129.555 152.423 129.585C152.393 129.845 152.311 131.151 154.247 132.037C156.295 132.988 164.278 135.278 164.278 135.278C164.278 135.278 165.616 136.811 168.696 139.649H168.713L174.066 136.471L176.405 130.295V130.279C171.954 126.974 167.213 123.749 163.793 122.474Z" fill="#935757"/>
<path d="M216.558 106.961C211.575 104.833 207.303 105.93 205.205 110.831C205.449 111.088 206.529 111.412 207.898 110.896C207.947 110.88 208.013 110.913 207.996 110.976C207.947 111.477 207.947 113.266 210.286 113.348C210.333 113.348 210.366 113.395 210.35 113.444C210.237 113.814 209.963 115.265 211.479 116.411C211.512 116.427 211.545 116.427 211.559 116.411C212.011 116.137 215.689 113.992 217.252 115.942C218.848 118.281 215.672 120.799 214.817 121.394C214.721 121.459 214.721 121.619 214.817 121.684C217.189 123.555 219.479 123.168 219.479 123.168C220.655 116.88 223.444 110.913 216.558 106.961Z" fill="#231F20"/>
<path d="M206.077 115.589C206.354 115.589 206.577 115.364 206.577 115.089C206.577 114.811 206.354 114.588 206.077 114.588C205.801 114.588 205.578 114.811 205.578 115.089C205.578 115.364 205.801 115.589 206.077 115.589Z" fill="#231F20"/>
<path d="M203.417 238.907H224.703C224.703 238.907 224.719 238.907 224.719 238.89C224.783 238.712 225.655 235.972 226.412 230.343C226.412 230.326 226.398 230.326 226.398 230.326C222.38 231.116 219.737 234.1 219.251 236.584C219.251 236.584 219.251 236.6 219.237 236.6H212.286C212.269 236.6 212.269 236.6 212.269 236.584C212.269 234.859 211.367 232.745 210.35 231.456H210.333C207.383 233.762 203.738 234.311 203.433 238.89C203.401 238.89 203.401 238.907 203.417 238.907Z" fill="#FD4E25"/>
<path d="M218.511 127.747C218.544 127.634 218.689 126.891 218.93 125.86C218.93 125.844 218.93 125.844 218.914 125.844L207.158 125.86C207.158 125.86 207.141 125.86 207.141 125.877L207.029 126.359L206.755 127.585L206.738 127.602C206.593 127.585 205.384 127.489 203.82 127.618H203.804C203.53 128.07 203.239 128.923 203.223 128.989C203.223 128.989 203.223 128.989 203.223 129.005L208.351 145.761C208.351 145.777 208.367 145.777 208.384 145.761L221.478 128.537V128.52C221.462 128.49 221.398 128.312 221.366 128.23C221.366 128.23 221.366 128.216 221.349 128.216C220.43 127.955 219.462 127.813 218.527 127.763C218.527 127.763 218.511 127.763 218.511 127.747Z" fill="#4D4A4F"/>
<path d="M207.495 178.562L207.465 170.434" stroke="#A5A5A5" stroke-width="0.9375" stroke-linecap="round" stroke-linejoin="round"/>
<path d="M222.283 216.056C222.283 216.056 221.203 204.607 219.623 194.625C216.801 176.677 217.122 156.727 217.122 156.727" stroke="#A5A5A5" stroke-width="0.9375" stroke-linecap="round" stroke-linejoin="round"/>
<path d="M228.604 132.988C226.799 130.619 224.235 128.957 221.38 128.216H221.364L209.01 143.245C208.994 143.261 208.994 143.245 208.977 143.245L203.835 127.602C203.835 127.602 203.819 127.602 203.819 127.586C201.834 127.764 199.094 128.313 196.464 129.714C192.224 131.99 185.015 136.616 184.741 136.795H184.724C184.612 136.698 182.983 135.327 180.613 133.473C179.388 132.505 177.967 131.425 176.451 130.295C176.437 130.295 176.437 130.295 176.437 130.295L168.742 139.649C168.742 139.666 168.742 139.666 168.742 139.666C179.5 149.905 183.386 151.855 192.658 147.391C194.432 146.535 196.417 145.438 198.691 144.133C198.707 144.133 198.707 144.133 198.707 144.149C198.836 144.698 201.513 156.292 201.609 156.662C201.609 156.662 201.609 156.662 201.625 156.679C201.883 156.679 207.559 156.679 212.463 156.662H219.557L222.283 147.147C222.299 147.147 222.299 147.147 222.316 147.147L225.379 152.664C225.395 152.711 225.395 152.76 225.346 152.777C224.83 153.147 221.38 155.711 217.478 158.741V158.758L218.847 165.435L223.605 167.87H223.621C228.7 165.355 234.7 161.5 236.249 156.726C238.07 151.098 232.588 137.826 228.604 132.988Z" fill="url(#paint4_linear_3544_7430)"/>
<path opacity="0.3" d="M219.557 156.661L222.299 147.115V147.098L220.429 143.969C220.429 143.953 220.413 143.953 220.396 143.969L209.446 156.644C209.43 156.661 209.446 156.677 209.463 156.677H212.446L219.557 156.661Z" fill="#040404"/>
<path opacity="0.3" d="M182.905 138.02L184.709 136.811C184.726 136.811 184.726 136.794 184.709 136.778C184.534 136.633 182.935 135.278 180.662 133.504C180.645 133.49 180.629 133.504 180.629 133.52L182.872 138.004C182.888 138.037 182.888 138.037 182.905 138.02Z" fill="#040404"/>
<path d="M223.589 167.869L217.479 158.773C217.479 158.773 217.463 158.757 217.463 158.773C212.173 162.886 206.142 167.787 206.318 168.708C206.48 169.545 207.64 169.545 207.64 169.545C207.141 170.208 206.803 170.707 206.803 170.707C205.964 172.369 207.802 173.206 207.802 173.206C207.964 175.207 209.801 175.029 209.801 175.029C210.64 177.19 211.962 176.691 211.962 176.691C212.963 178.852 215.656 177.012 215.656 177.012C216.624 176.48 216.849 174.673 215.864 174.53C216.237 174.207 216.703 173.82 217.301 173.367C218.785 172.287 219.978 170.869 220.784 169.207C221.606 168.853 222.654 168.352 223.606 167.885C223.606 167.885 223.606 167.885 223.589 167.869Z" fill="#935757"/>
<path opacity="0.3" d="M192.708 147.375C194.707 146.454 198.48 144.246 198.691 144.133C198.691 144.133 198.708 144.117 198.691 144.117L197.803 140.407C197.803 140.39 197.787 140.39 197.77 140.407L192.691 147.358C192.691 147.375 192.708 147.391 192.708 147.375Z" fill="#040404"/>
<path d="M204.156 118.282C204.367 118.507 205.253 118.863 205.818 118.266" stroke="#0D0D0D" stroke-width="0.9375" stroke-linecap="round" stroke-linejoin="round"/>
<path d="M207.352 124.891C208.221 124.828 209.916 124.441 210.705 124.102" stroke="#0D0D0D" stroke-width="0.9375" stroke-linecap="round" stroke-linejoin="round"/>
<path d="M213.188 118.684L215.011 117.861" stroke="#0D0D0D" stroke-width="0.9375" stroke-linecap="round" stroke-linejoin="round"/>
<path d="M152.439 129.539C152.439 129.539 160.565 130.894 161.388 131.07C161.388 131.07 165.405 130.233 168.871 130.732" stroke="#0D0D0D" stroke-width="0.9375" stroke-linecap="round" stroke-linejoin="round"/>
<path d="M152.488 127.277L162.067 128.747" stroke="#0D0D0D" stroke-width="0.9375" stroke-linecap="round" stroke-linejoin="round"/>
<path d="M153.762 125.15L162.888 126.587" stroke="#0D0D0D" stroke-width="0.9375" stroke-linecap="round" stroke-linejoin="round"/>
<path d="M222.3 147.116L220.43 143.971" stroke="#040404" stroke-width="0.9375" stroke-linecap="round" stroke-linejoin="round"/>
<path d="M207.641 169.545C208.4 168.738 209.173 168.176 209.173 168.176" stroke="#0D0D0D" stroke-width="0.9375" stroke-linecap="round" stroke-linejoin="round"/>
<path d="M207.801 173.207C207.962 172.384 208.204 171.547 209.512 170.338" stroke="#0D0D0D" stroke-width="0.9375" stroke-linecap="round" stroke-linejoin="round"/>
<path d="M209.801 175.03C209.883 173.738 210.108 173.19 211.205 172.062" stroke="#0D0D0D" stroke-width="0.9375" stroke-linecap="round" stroke-linejoin="round"/>
<path d="M211.961 176.692C211.977 175.094 212.219 174.691 213.091 173.805" stroke="#0D0D0D" stroke-width="0.9375" stroke-linecap="round" stroke-linejoin="round"/>
<path d="M182.904 138.022L184.725 136.812" stroke="#040404" stroke-width="0.9375" stroke-linecap="round" stroke-linejoin="round"/>
<path d="M198.692 144.133L197.82 140.406" stroke="#040404" stroke-width="0.9375" stroke-linecap="round" stroke-linejoin="round"/>
<path d="M146.349 172.863H188.478C190.057 172.863 191.621 173.175 193.079 173.777C194.536 174.382 195.863 175.268 196.979 176.384C198.097 177.499 198.98 178.826 199.582 180.284C200.187 181.741 200.499 183.305 200.499 184.884V227.013C200.499 228.593 200.187 230.156 199.582 231.614C198.98 233.072 198.097 234.398 196.979 235.514C195.863 236.63 194.536 237.516 193.079 238.118C191.621 238.723 190.057 239.032 188.478 239.032H146.349C144.769 239.032 143.206 238.723 141.748 238.118C140.29 237.516 138.964 236.63 137.848 235.514C136.732 234.398 135.847 233.072 135.242 231.614C134.639 230.156 134.328 228.593 134.33 227.013V184.884C134.328 183.305 134.639 181.741 135.242 180.284C135.847 178.826 136.732 177.499 137.848 176.384C138.964 175.268 140.29 174.382 141.748 173.777C143.206 173.175 144.769 172.863 146.349 172.863Z" fill="#FFC930"/>
<path d="M167.401 220.753C175.473 220.753 182.017 214.209 182.017 206.137C182.017 198.065 175.473 191.521 167.401 191.521C159.327 191.521 152.783 198.065 152.783 206.137C152.783 214.209 159.327 220.753 167.401 220.753Z" stroke="white" stroke-width="0.9375"/>
<path d="M167.4 228.06C179.508 228.06 189.324 218.245 189.324 206.137C189.324 194.029 179.508 184.211 167.4 184.211C155.29 184.211 145.475 194.029 145.475 206.137C145.475 218.245 155.29 228.06 167.4 228.06Z" fill="url(#paint5_linear_3544_7430)"/>
<path d="M164.316 211.609V200.289H168.523C170.413 200.289 171.927 201.592 171.927 203.214C171.927 204.817 170.413 206.137 168.523 206.137H164.316" stroke="white" stroke-width="0.9375" stroke-linecap="round" stroke-linejoin="round"/>
<path d="M164.316 211.984V206.137H168.523C170.413 206.137 171.927 207.437 171.927 209.059C171.927 210.665 170.413 211.984 168.523 211.984H164.316Z" stroke="white" stroke-width="0.9375" stroke-linecap="round" stroke-linejoin="round"/>
<path d="M167.506 200.13V198.705" stroke="white" stroke-width="0.9375" stroke-linecap="round" stroke-linejoin="round"/>
<path d="M167.506 213.553V212.145" stroke="white" stroke-width="0.9375" stroke-linecap="round" stroke-linejoin="round"/>
<path d="M96.3961 233.579L100.941 224.413L100.971 223.761C101.004 222.791 101.084 221.743 101.147 220.743L100.861 220.33L86.3086 220.616V220.743C86.4188 223.412 86.625 225.859 86.9437 228.21V228.226L91.9008 233.579H96.3961Z" fill="#CEA482"/>
<path d="M70.7215 234.756L74.6285 224.493C74.7246 223.555 74.9145 222.302 75.2004 220.647L60.0762 220.551C60.0926 223 60.2496 225.733 60.5848 228.306V228.323L66.0504 234.773L70.7215 234.756Z" fill="#CEA482"/>
<path d="M114.857 134.474C114.857 133.424 114.824 132.313 114.761 131.17C114.84 131.153 116.968 130.565 116.985 126.1H117.001C117.287 126.1 118.082 126.006 118.255 125.116C118.494 123.955 118.464 122.399 117.843 121.558C117.557 121.192 117.224 121 116.825 120.953C116.811 119.856 116.207 119.078 115.365 119.078C115.159 119.078 114.95 119.111 114.761 119.188C114.587 118.22 113.903 118.014 113.347 118.014C112.869 118.014 112.426 118.157 112.25 118.22C113.95 113.978 114.252 112.502 113.49 111.897C113.411 111.834 113.314 111.801 113.221 111.801C111.997 111.801 109.581 116.664 108.836 118.427C108.39 119.491 106.595 125.528 104.863 131.359L104.736 131.772L104.926 131.852L114.521 134.488L114.857 134.474Z" fill="#CEA482"/>
<path d="M61.1247 208.846C61.5864 206.493 62.1583 204.475 62.7302 202.537L62.763 202.459C64.3825 196.881 65.9083 191.622 64.6216 179.613C63.9208 173.05 64.5724 166.218 66.5106 159.864C67.9567 155.097 69.6724 152.127 69.8645 151.792L69.8786 151.778H78.4263C78.4427 151.762 78.4427 151.762 78.4591 151.762H90.9935V151.792C91.4552 152.936 102.004 180.168 102.004 198.82C102.004 204.827 101.606 212.008 101.29 217.79V217.9C101.257 218.472 101.226 219.03 101.193 219.585C101.177 219.981 101.177 220.38 101.147 220.762H86.3388C86.3083 220.762 86.2919 220.745 86.2919 220.713C86.0692 214.724 86.4513 209.448 86.688 206.303C87.2927 198.44 84.9091 193.26 82.3825 187.762C82.0966 187.127 81.7942 186.491 81.5083 185.84C81.0794 190.352 80.6364 194.198 80.2544 196.436C79.6192 200.106 78.5856 204.761 77.681 208.83C76.7106 213.166 75.7896 217.345 75.1849 220.745L60.0606 220.792V220.762C60.0138 216.852 60.3794 212.833 61.1247 208.846Z" fill="#FD4E25"/>
<path opacity="0.2" d="M85.719 195.957L83.9706 177.671C83.7011 174.796 82.4776 174.985 82.4776 174.985C80.619 171.221 82.4776 174.985 82.4776 174.985C82.3347 174.985 82.0487 180.8 82.0487 180.8C82.0487 180.8 81.73 181.485 81.5073 185.139C81.5073 185.139 80.7925 183.58 81.6362 186.123L82.3651 187.728C83.5745 190.318 84.812 193.002 85.6557 195.957H85.719Z" fill="#396073"/>
<path d="M109.471 238.698C109.518 237.871 109.312 236.996 108.946 236.282C108.946 236.268 108.93 236.251 108.916 236.235L108.9 236.218L88.516 236.139C88.4832 236.139 88.4668 236.171 88.4668 236.202C88.6895 237.029 88.9754 237.934 89.2145 238.712L109.471 238.698Z" fill="black"/>
<path d="M108.93 236.298C108.947 236.298 108.963 236.298 108.93 236.298C108.518 235.504 107.899 234.852 107.215 234.376C107.121 234.296 106.643 233.994 106.516 233.898C103.943 232.182 100.748 230.054 100.877 225.971V225.892V225.829C100.891 225.367 100.908 224.905 100.941 224.382V224.35H96.9516C96.7289 224.35 96.5063 224.382 96.2695 224.446C95.6812 224.619 95.2055 225.018 94.9195 225.557C94.6336 226.114 94.568 226.733 94.7602 227.305L96.0633 231.468H91.6781C90.9141 229.482 89.0555 228.179 86.9273 228.132H86.8945V228.163C87.2297 230.706 88.3898 235.789 88.5 236.249C88.5 236.265 88.5164 236.282 88.5469 236.282L108.518 236.298H108.93Z" fill="#231F20"/>
<path d="M83.1133 238.729V238.696C83.1602 237.855 82.9867 237.03 82.6047 236.299L82.382 236.076L62.1414 235.408C62.125 235.408 62.125 236.219 62.125 236.236C62.3477 237.077 62.6195 237.935 62.8727 238.713L83.1133 238.729Z" fill="black"/>
<path d="M82.6055 236.298C82.0969 235.059 80.2852 233.995 80.1586 233.898C77.5852 232.183 74.393 230.055 74.5195 225.972C74.5359 225.4 74.5664 224.922 74.6297 224.463V224.43H70.4203C70.1977 224.43 69.975 224.462 69.7359 224.526C69.15 224.699 68.6719 225.098 68.3859 225.637C68.1 226.195 68.0367 226.813 68.2266 227.385L69.5297 231.548H65.1445C64.3992 229.642 62.6039 228.339 60.5695 228.227H60.5391V228.259C60.8719 230.737 61.9992 235.647 62.1258 236.219C62.1258 236.249 62.1586 236.282 62.1891 236.282L82.575 236.298H82.6055Z" fill="#231F20"/>
<path d="M62.6335 136.014L62.7624 135.761C63.3812 134.538 64.8273 132.137 67.5906 130.073C67.607 130.056 67.6234 130.056 67.6398 130.056C67.6538 130.04 67.6867 130.009 67.7031 129.993C68.3851 129.468 70.2296 128.42 72.8335 127.832H72.8499L81.857 143.784L89.7554 128.088C89.7695 128.055 89.8023 128.055 89.8187 128.055L90.3906 128.277C91.5812 128.753 92.296 129.278 93.6296 130.312C96.6812 132.646 99.0015 134.68 101.289 136.729C101.861 137.238 102.416 137.73 102.958 138.208C103.052 137.826 103.719 135.156 104.72 131.755L104.737 131.725L114.857 134.441V134.474C114.887 140.463 114.03 145.087 112.314 148.199C110.758 151.028 108.47 152.554 105.674 152.617H105.402C99.6999 152.617 94.982 148.963 92.6781 146.77L92.0429 151.886C92.057 151.982 94.0445 159.463 96.8242 169.141L96.8406 169.188H96.7914C96.714 169.188 89.357 169.045 82.9538 163.738C75.4867 170.092 65.0171 170.172 64.5718 170.172H64.5249V170.078C64.8578 166.202 65.589 162.834 66.4163 160.052C63.6507 159.815 61.539 159.004 60.107 157.638C56.4859 154.143 57.3906 146.467 62.6335 136.014Z" fill="#FD4E25"/>
<path opacity="0.2" d="M65.4152 164.293C74.5488 161.561 74.7082 159.512 74.741 159.463L67.7496 160.211L66.416 160.051L65.366 164.263L65.3496 164.31L65.4152 164.293Z" fill="#396073"/>
<path d="M89.8977 128.103L89.832 128.073C88.8477 127.66 87.8469 127.452 86.7664 127.437C86.7664 127.437 86.7359 127.437 86.6867 127.437C85.7328 127.388 83.2086 127.262 80.4594 127.262C78.5539 127.262 76.8219 127.325 75.3266 127.437C74.4547 127.501 73.6273 127.644 72.8328 127.834L72.7695 127.85L81.8422 143.928L89.8977 128.103Z" fill="url(#paint6_linear_3544_7430)"/>
<path opacity="0.2" d="M93.2332 141.67L93.1699 141.686L92.6777 146.786L92.7082 146.819C93.8051 147.85 94.9652 148.771 96.1559 149.566L96.2848 149.646L93.2332 141.67Z" fill="#396073"/>
<path d="M78.1562 127.293H84.9086L82.7312 130.455L84.2406 139.192L81.843 143.927L78.9039 138.7L80.3336 130.455L78.1562 127.293Z" fill="#CECECE"/>
<path d="M86.6884 126.403L86.6087 125.02C86.9111 125.053 87.197 125.084 87.4993 125.084C88.6595 125.084 90.2322 124.798 91.2001 123.417C92.3603 121.748 92.1868 119.634 91.8212 117.616C91.7087 116.951 91.6619 116.013 91.629 115.202C91.5494 113.327 91.4556 110.77 90.4853 109.308C88.8494 106.844 86.815 106.924 82.9548 106.924C80.9697 106.924 79.1275 107.655 77.7447 108.991C76.3947 110.292 75.6306 112.024 75.6001 113.852C75.5673 115.95 74.8689 119.906 75.0751 123.846L75.122 124.767C75.1548 125.355 75.1853 125.894 75.2017 126.37V126.403H86.6884Z" fill="#CEA482"/>
<path opacity="0.2" d="M86.6086 125.021L86.4516 125.005C85.0055 124.862 83.6859 124.449 82.3195 123.957L82.2891 124.02C83.6695 124.911 85.132 125.705 86.625 126.404L86.6883 126.451L86.6086 125.021Z" fill="#191919"/>
<path d="M81.7133 127.706L84.1461 130.486C84.193 130.533 84.2891 130.533 84.3195 130.486L86.7195 127.563C86.7359 127.547 86.75 127.516 86.75 127.484L86.6867 126.45C86.6867 126.387 86.6234 126.34 86.5766 126.34H75.1836V126.37C75.2 126.736 75.2164 127.071 75.2328 127.357L75.2492 127.594C75.2492 127.627 75.2633 127.659 75.2961 127.673L78.6312 130.582C78.6805 130.629 78.7602 130.613 78.7906 130.582L81.5398 127.706C81.5867 127.659 81.6664 127.659 81.7133 127.706Z" fill="url(#paint7_linear_3544_7430)"/>
<path d="M80.4431 122.287L80.4759 122.257L80.4431 122.24C80.4431 122.24 80.4431 122.24 80.3494 122.177C80.047 121.987 79.1259 121.415 78.315 120.635C77.408 119.763 76.44 118.443 76.965 117.187C77.408 116.156 78.2517 115.631 79.4752 115.631C80.6189 115.631 81.8259 116.107 82.4306 116.393C82.4611 116.409 82.4775 116.409 82.4775 116.409L82.508 116.425L82.5244 116.393C83.272 115.075 83.3986 113.296 83.7009 111.773C83.6681 111.738 84.383 111.771 85.0181 111.771C89.7549 111.771 90.5799 109.483 90.5799 109.45C90.547 109.404 90.5002 109.324 90.4838 109.307C88.8478 106.844 85.8291 105.494 81.9689 105.494C79.9838 105.494 78.1392 106.225 76.7588 107.561C75.4064 108.879 74.6447 110.611 74.6119 112.422C74.5814 114.424 74.8345 119.364 75.0408 123.354L75.0736 123.972H75.4228C75.4228 123.972 78.7744 123.956 80.4431 122.287Z" fill="#191919"/>
<path d="M90.357 116.204C90.643 116.204 90.882 115.965 90.882 115.679C90.882 115.393 90.643 115.156 90.357 115.156C90.0711 115.156 89.832 115.393 89.832 115.679C89.832 115.965 90.0711 116.204 90.357 116.204Z" fill="#171314"/>
<path d="M86.6867 116.471C86.3984 116.471 86.1641 116.237 86.1641 115.949C86.1641 115.658 86.3984 115.424 86.6867 115.424C86.9773 115.424 87.2117 115.658 87.2117 115.949C87.2117 116.237 86.9773 116.471 86.6867 116.471Z" fill="#171314"/>
<path d="M92.232 129.295L92.8039 135.426L89.3094 134.791L90.7391 139.399L83.2719 146.547L82.9531 163.706" stroke="#396073" stroke-width="0.9375" stroke-linecap="round" stroke-linejoin="round"/>
<path d="M70.4984 128.627L70.4023 135.904L74.0562 135.745L72.3102 140.193L82.9531 150.297" stroke="#396073" stroke-width="0.9375" stroke-linecap="round" stroke-linejoin="round"/>
<path d="M81.8438 143.848L83.3367 146.611" stroke="#396073" stroke-width="0.9375" stroke-linecap="round" stroke-linejoin="round"/>
<path d="M86.607 125.02C85.8453 124.783 84.9406 124.75 84.0664 124.527" stroke="#191919" stroke-width="0.9375" stroke-linecap="round" stroke-linejoin="round"/>
<path d="M79.6191 118.111L81.3652 118.904" stroke="#191919" stroke-width="0.9375" stroke-linecap="round" stroke-linejoin="round"/>
<path d="M88.8184 120.079C88.1809 120.222 87.5152 119.906 87.2129 119.334" stroke="#191919" stroke-width="0.9375" stroke-linecap="round" stroke-linejoin="round"/>
<path d="M89.0078 116.758C89.2141 117.299 89.3734 117.695 88.832 117.918" stroke="#191919" stroke-width="0.9375" stroke-linecap="round" stroke-linejoin="round"/>
<path d="M92.6777 146.787L92.9941 143.529" stroke="#396073" stroke-width="0.9375" stroke-linecap="round" stroke-linejoin="round"/>
<path d="M102.957 138.223L103.416 140.147" stroke="#396073" stroke-width="0.9375" stroke-linecap="round" stroke-linejoin="round"/>
<path d="M82.4781 174.494C82.1594 178.45 81.857 182.28 81.5078 185.838" stroke="#396073" stroke-width="0.9375" stroke-linecap="round" stroke-linejoin="round"/>
<path d="M96.7922 169.171C96.7922 169.171 89.468 169.107 82.9547 163.705C75.3281 170.221 64.5586 170.155 64.5586 170.155" stroke="#396073" stroke-width="0.9375" stroke-linecap="round" stroke-linejoin="round"/>
<path d="M64.3359 220.664C65.0016 213.593 67.8609 203.745 69.1336 195.959C70.4039 188.175 69.593 173.447 69.9281 170.014" stroke="#396073" stroke-width="0.9375" stroke-linecap="round" stroke-linejoin="round"/>
<path d="M76.3227 230.855L74.375 232.182" stroke="black" stroke-width="0.9375" stroke-linecap="round" stroke-linejoin="round"/>
<path d="M102.638 230.906L100.906 232.181" stroke="black" stroke-width="0.9375" stroke-linecap="round" stroke-linejoin="round"/>
<path d="M86.7375 127.516L84.2414 130.548L81.6516 127.563L78.7125 130.612L75.2812 127.626" stroke="black" stroke-width="0.9375" stroke-linecap="round" stroke-linejoin="round"/>
<path d="M116.955 126.053C116.383 125.767 115.985 125.242 115.842 124.623" stroke="#191919" stroke-width="0.9375" stroke-linecap="round" stroke-linejoin="round"/>
<path d="M116.796 121.127C116.796 122.559 116.43 125.004 114.888 124.624C114.047 124.418 113.824 123.496 113.777 122.908" stroke="#191919" stroke-width="0.9375" stroke-linecap="round" stroke-linejoin="round"/>
<path d="M114.73 119.221C114.651 119.856 114.522 120.491 114.379 121.126" stroke="#191919" stroke-width="0.9375" stroke-linecap="round" stroke-linejoin="round"/>
<path d="M107.42 123.355C109.105 122.131 113.617 120.336 114.411 121.287C115.206 122.241 111.393 124.784 111.393 124.784C111.393 124.784 113.141 127.644 112.663 129.868" stroke="#191919" stroke-width="0.9375" stroke-linecap="round" stroke-linejoin="round"/>
<path d="M92.1695 163.088C92.3758 163.088 92.5352 163.008 92.6148 162.865C92.9008 162.356 92.3594 161.133 92.1062 160.641C92.3922 160.88 93.8852 162.04 95.0453 162.04C95.6336 162.04 96.0461 161.737 96.2852 161.166C96.2852 161.166 96.2852 161.166 96.2992 161.166C96.3953 161.166 96.9672 161.133 97.3164 160.687C97.5719 160.371 97.6516 159.926 97.5391 159.387C97.6023 159.354 97.6984 159.244 97.7945 159.084C98.0008 158.749 98.2234 158.02 97.5227 156.717C96.4281 154.716 92.6453 151.219 86.7508 149.822C83.575 149.074 79.682 148.772 76.9797 148.629H76.9492L77.7109 158.719C79.7617 158.163 81.1281 157.685 81.2711 157.638C82.7805 158.576 84.5125 159.068 86.275 159.068C86.4344 159.068 86.5773 159.068 86.7367 159.052C86.7508 159.068 86.8141 159.131 86.8937 159.211C90.3414 162.42 91.6773 163.088 92.1695 163.088Z" fill="#CEA482"/>
<path d="M96.2996 161.164C93.759 158.781 89.3105 155.443 89.3105 155.443" stroke="#191919" stroke-width="0.9375" stroke-linecap="round" stroke-linejoin="round"/>
<path d="M97.5723 159.418C96.2996 157.829 92.8051 154.97 90.7402 153.699" stroke="#191919" stroke-width="0.9375" stroke-linecap="round" stroke-linejoin="round"/>
<path d="M92.1055 160.64L88.1328 157.176" stroke="#191919" stroke-width="0.9375" stroke-linecap="round" stroke-linejoin="round"/>
<path d="M73.0254 156.908C72.2613 156.908 71.6426 156.289 71.6426 155.525C71.6426 154.763 72.2613 154.145 73.0254 154.145C73.7871 154.145 74.4059 154.763 74.4059 155.525C74.4059 156.289 73.7871 156.908 73.0254 156.908Z" fill="white"/>
<path d="M72.0391 144.66L70.5625 148.457" stroke="#396073" stroke-width="0.9375" stroke-linecap="round" stroke-linejoin="round"/>
<path d="M66.3535 160.037C70.2605 160.388 74.6926 159.498 77.7113 158.703" stroke="#396073" stroke-width="0.9375" stroke-linecap="round" stroke-linejoin="round"/>
<path d="M76.9156 148.614C73.2617 148.455 71.0375 148.455 67.543 148.455" stroke="#396073" stroke-width="0.9375" stroke-linecap="round" stroke-linejoin="round"/>
<path d="M112.25 118.221C111.868 118.903 111.362 120.874 111.217 121.509" stroke="#191919" stroke-width="0.9375" stroke-linecap="round" stroke-linejoin="round"/>
<path d="M336.89 119.145C336.423 118.801 335.8 118.731 335.247 118.956C335.23 118.956 335.212 118.956 335.23 118.939C335.559 118.091 334.832 117.589 333.916 117.763C331.199 118.245 328.57 121.187 325.091 121.897C325.075 121.897 325.059 121.878 325.075 121.862C327.1 119.284 327.808 117.573 325.403 118.438C319.609 120.531 306.098 136.583 305.666 137.103H305.648C305.181 136.705 304.42 135.927 303.452 135.01H303.433L299.523 139.679C299.523 139.679 299.523 139.679 299.523 139.698L298.797 147.655V147.671C302.448 149.973 307.776 152.204 312.119 149.04C317.118 145.407 320.613 138.313 324.123 130.703C324.123 130.703 324.123 130.703 324.14 130.684C327.1 129.645 329.952 128.661 331.891 127.051C336.285 123.437 337.6 121.377 336.909 120.669V120.65C337.098 120.512 337.427 119.647 336.89 119.145Z" fill="#A66241"/>
<path d="M287.105 224.793C287.121 222.784 287.449 220.347 287.899 217.734C287.899 217.734 287.899 217.734 287.899 217.717L287.416 216.782L287.398 216.766L271.915 217.232H271.898L271.587 217.698C271.535 218.755 271.535 221.73 271.638 223.909C271.882 227.924 272.451 230.275 272.487 230.57C272.538 230.898 273.698 231.21 273.766 231.47C273.766 231.47 273.766 231.487 273.785 231.487L285.581 235.052C285.6 235.052 285.6 235.052 285.6 235.033L287.208 227.076C287.14 226.436 287.086 225.658 287.105 224.793Z" fill="#A66241"/>
<path d="M261.605 93.8216C264.617 90.2403 270.999 90.6716 275.878 94.7895C280.756 98.9075 282.26 105.116 279.251 108.697C276.242 112.279 269.857 111.847 264.98 107.729C262.939 106.016 261.485 103.923 260.707 101.814C259.634 98.8723 259.859 95.8958 261.605 93.8216Z" fill="#FF4F32"/>
<path opacity="0.2" d="M266.05 105.286C263.976 104.405 262.262 103.142 260.758 101.846C260.739 101.827 260.723 101.846 260.723 101.862C261.379 103.608 262.452 105.305 264.009 106.826C267.002 109.768 270.824 111.307 274.148 111.082C275.823 110.979 277.312 110.459 278.523 109.404C279.578 108.453 280.253 107.225 280.565 105.858C280.565 105.842 280.546 105.842 280.546 105.842C276.62 107.571 271.187 107.52 266.05 105.286Z" fill="#171717"/>
<path d="M290.875 110.22C289.959 108.436 288.349 106.674 286.066 105.912C284.285 105.237 281.118 105.221 278.334 106.655C273.853 108.957 273.766 112.918 274.113 116.326C274.232 117.467 274.701 122.019 275.046 124.751C275.046 124.768 275.046 124.768 275.064 124.768H285.963L287.139 124.733C287.156 124.733 287.156 124.716 287.156 124.716L287.034 123.331C287.034 123.315 287.053 123.315 287.053 123.315C290.078 123.781 292.657 123.141 293.486 121.411C294.438 119.492 293.54 117.001 292.933 115.393V115.374C293.039 115.287 293.988 114.458 293.765 113.783C293.573 113.246 292.139 113.126 292 113.108C292 113.108 291.982 113.108 291.982 113.091C291.705 112.123 291.342 111.136 290.875 110.22Z" fill="#A66241"/>
<path opacity="0.2" d="M287.018 123.312C286.863 123.28 285.166 122.881 284.285 122.586C284.266 122.586 284.25 122.605 284.267 122.621L287.121 124.733C287.14 124.749 287.156 124.733 287.156 124.714L287.018 123.312C287.034 123.331 287.018 123.312 287.018 123.312Z" fill="#171717"/>
<path d="M292.363 127.621C290.235 126.965 287.589 126.981 287.364 126.981C287.345 126.981 287.345 126.981 287.345 126.965L287.155 124.766C287.155 124.75 287.155 124.75 287.139 124.75H275.029C275.012 124.75 275.012 124.766 275.012 124.766C275.151 125.823 275.254 126.618 275.289 126.775C275.289 126.775 275.289 126.791 275.27 126.791C273.229 127.586 269.509 129.749 267.297 133.469C264.735 137.758 257.453 153.501 264.735 157.445C264.754 157.445 264.754 157.462 264.77 157.462C266.31 158.275 269.615 158.552 269.804 158.57H269.821L272.209 155.889C272.209 155.889 272.209 155.889 272.226 155.889L290.91 155.854C290.91 155.854 290.926 155.854 290.926 155.835L294.576 144.454C294.576 144.435 294.594 144.435 294.611 144.454C295.926 145.682 297.224 146.702 298.764 147.705C298.78 147.705 298.78 147.705 298.78 147.705L303.416 135.077V135.06C300.857 132.517 296.79 128.884 292.363 127.621Z" fill="#4D4A4F"/>
<path opacity="0.2" d="M293.419 148.018L294.577 144.42V144.402L291.48 141.669C291.464 141.652 291.445 141.669 291.445 141.688L293.419 148.018Z" fill="#292929"/>
<path opacity="0.2" d="M264.788 157.48C266.328 158.294 269.649 158.57 269.841 158.57H269.857L272.313 156.149V156.133L270.394 145.823C270.394 145.804 270.359 145.804 270.359 145.823C270.153 152.603 265.135 157.152 264.788 157.464C264.771 157.448 264.771 157.464 264.788 157.48Z" fill="#292929"/>
<path opacity="0.2" d="M307.084 135.457C306.254 136.409 305.734 137.032 305.666 137.119V137.135L307.689 138.935L307.084 135.457Z" fill="#171717"/>
<path d="M240.395 207.699C240.395 207.699 240.379 207.699 240.379 207.716C239.582 209.307 238.823 211.14 238.096 213.043C237.264 215.187 236.591 217.126 236.02 218.874C235.881 219.305 235.743 219.739 235.605 220.17C235.258 221.225 235.171 221.347 234.895 222.402V222.42L246.33 231.02C246.346 231.02 246.346 231.02 246.365 231.02L248.995 224.633C249.184 223.941 250.377 223.459 250.654 222.8C250.844 222.369 251.052 221.848 251.294 221.434C252.351 219.392 253.82 217.023 255.498 214.548V214.531L247.87 209.879L240.395 207.699Z" fill="#A66241"/>
<path d="M290.893 155.818C288.764 155.818 274.754 155.75 272.246 155.782C272.246 155.782 272.246 155.782 272.227 155.782C260.049 165.713 260.377 178.669 251.52 190.625C242.785 202.006 241.004 206.468 240.396 207.68C240.396 207.699 240.396 207.699 240.396 207.699C240.933 207.94 255.05 214.306 255.5 214.514H255.516C261.277 206.468 266.675 198.495 271.102 189.879C272.314 187.613 273.49 185.365 274.615 183.186C274.615 183.167 274.65 183.167 274.65 183.186C275.74 187.925 276.657 192.872 275.168 198.218C272.85 206.609 271.829 212.335 271.587 217.73C271.587 217.749 271.587 217.749 271.606 217.749H287.867C287.867 217.749 287.883 217.749 287.883 217.73C288.038 216.849 288.23 215.914 288.42 214.929C289.458 209.548 290.806 203.597 291.378 198.53C294.024 175.296 290.998 156.406 290.893 155.818C290.911 155.834 290.911 155.818 290.893 155.818Z" fill="#FD4E25"/>
<path d="M249.964 224.845C250.154 224.153 250.362 223.459 250.655 222.803C250.655 222.784 250.655 222.784 250.639 222.784C249.375 222.44 247.128 221.92 246.054 222.112C246.038 222.112 245.189 222.283 245.189 224.324C245.189 226.574 245.45 229.03 244.325 228.616C243.113 228.149 243.113 225.916 242.126 225.433C241.315 225.051 236.747 223.166 234.896 222.405C234.879 222.405 234.879 222.405 234.879 222.421C234.221 224.723 233.841 226.523 233.6 227.802C233.6 227.802 233.6 227.819 233.616 227.819L242.82 232.473L254.686 236.123C254.703 236.123 254.703 236.123 254.703 236.106C254.548 232.837 251.227 230.934 249.893 227.404C249.687 226.677 249.722 225.829 249.964 224.845Z" fill="white"/>
<path d="M263.318 166.823C263.733 167.36 264.373 167.671 265.498 167.671C266.864 167.671 268.716 166.373 269.166 164.782L270.066 161.615H266.848" stroke="#0E232D" stroke-width="0.9375" stroke-linecap="round" stroke-linejoin="round"/>
<path d="M272.14 133.382C272.14 133.382 274.754 130.891 276.258 128.972C276.275 128.953 276.293 128.972 276.293 128.988C276.136 131.601 275.496 133.139 275.41 133.347C275.41 133.364 275.41 133.364 275.429 133.364H279.2H279.216C279.389 133.174 283.765 127.968 282.797 119.25C282.797 119.25 282.797 119.231 282.781 119.231C282.556 119.128 277.92 117.103 279.736 113.817C281.274 111.084 285.6 114.129 285.825 114.302H285.842L287.365 113.193C287.365 113.193 287.382 113.177 287.365 113.177C287.311 113.055 286.758 111.965 285.186 110.046C285.167 110.029 285.186 110.011 285.202 110.011C286.793 110.496 288.317 112.036 288.455 112.174H288.472L290.841 110.219V110.2C289.96 108.436 288.471 106.361 286.221 105.616C284.44 104.943 281.274 104.943 278.489 106.397C274.008 108.715 273.68 112.277 272.384 116.948C269.806 125.77 261.036 123.504 259.65 133.347C259.65 133.364 259.65 133.364 259.669 133.364L272.14 133.382Z" fill="#FF4F32"/>
<path d="M270.357 145.803L272.244 155.785" stroke="#292929" stroke-width="0.9375" stroke-linecap="round" stroke-linejoin="round"/>
<path d="M269.166 151.15L271.034 150.389" stroke="#292929" stroke-width="0.9375" stroke-linecap="round" stroke-linejoin="round"/>
<path d="M291.48 141.652L294.577 144.42" stroke="#292929" stroke-width="0.9375" stroke-linecap="round" stroke-linejoin="round"/>
<path d="M290.236 117.484L291.603 117.571" stroke="#171717" stroke-width="0.9375" stroke-linecap="round" stroke-linejoin="round"/>
<path d="M284.285 122.586C284.993 122.83 286.343 123.158 287.053 123.331" stroke="#171717" stroke-width="0.9375" stroke-linecap="round" stroke-linejoin="round"/>
<path d="M282.449 115.426L284.024 116.586" stroke="#171717" stroke-width="0.9375" stroke-linecap="round" stroke-linejoin="round"/>
<path d="M289.785 114.075C290.08 114.075 290.321 113.853 290.321 113.574C290.321 113.297 290.08 113.072 289.785 113.072C289.489 113.072 289.248 113.297 289.248 113.574C289.248 113.853 289.489 114.075 289.785 114.075Z" fill="#221F1F"/>
<path d="M282.07 164.832L282.97 161.682H276.845L275.945 164.832C275.495 166.423 276.499 167.703 278.195 167.703C279.874 167.703 281.636 166.404 282.07 164.832Z" stroke="#0E232D" stroke-width="0.9375" stroke-linecap="round" stroke-linejoin="round"/>
<path d="M272.502 230.605C272.865 233.009 273.228 234.807 273.559 236.122L273.575 236.141L278.263 236.192L296.446 236.141C296.462 236.141 296.462 236.122 296.462 236.122C295.009 233.094 291.1 232.611 288.383 229.808C288.071 229.48 287.83 229.081 287.657 228.65C287.38 227.905 287.242 227.178 287.155 226.348C287.155 226.332 287.155 226.332 287.139 226.332C284.197 226.332 282.224 226.365 282.224 228.233C282.224 230.293 284.786 232.852 283.436 233.164C282.086 233.476 280.044 230.621 277.658 230.621L272.502 230.605Z" fill="white"/>
<path d="M281.465 217.614C282.034 209.741 284.976 201.714 286.844 191.371C288.747 180.836 288.4 162.758 287.432 155.924" stroke="#0E232D" stroke-width="0.9375" stroke-linecap="round" stroke-linejoin="round"/>
<path d="M305.666 137.117L307.689 138.952" stroke="#171717" stroke-width="0.9375" stroke-linecap="round" stroke-linejoin="round"/>
<path d="M272.764 172.705C272.886 175.3 273.68 178.827 274.65 183.135" stroke="#0E232D" stroke-width="0.9375" stroke-linecap="round" stroke-linejoin="round"/>
<path d="M335.248 118.953C333.397 120.683 331.355 122.673 327.291 124.231" stroke="#171717" stroke-width="0.9375" stroke-linecap="round" stroke-linejoin="round"/>
<path d="M336.875 120.668C336.129 121.533 333.38 124.577 329.506 126.307" stroke="#171717" stroke-width="0.9375" stroke-linecap="round" stroke-linejoin="round"/>
<path d="M280.634 105.584C279.891 105.774 275.859 106.88 274.148 111.085" stroke="#171717" stroke-width="0.9375" stroke-linecap="round" stroke-linejoin="round"/>
<path d="M233.632 227.818L254.702 236.122L254.721 236.141C254.737 236.919 254.615 237.697 254.339 238.44C254.339 238.459 254.322 238.459 254.322 238.459L233.304 230.155L233.287 230.136C233.304 230.033 233.355 229.29 233.615 227.837C233.599 227.818 233.615 227.818 233.632 227.818Z" fill="#707070"/>
<path d="M273.577 236.141H296.464C296.464 236.141 296.48 236.141 296.48 236.157C296.827 236.884 297.036 237.645 297.068 238.459C297.068 238.475 297.068 238.475 297.052 238.475H274.217C274.217 238.475 274.2 238.475 274.2 238.459C274.165 238.353 273.924 237.627 273.561 236.157L273.577 236.141Z" fill="#707070"/>
<path opacity="0.2" d="M271.155 189.811C272.364 187.561 273.541 185.313 274.666 183.134C274.666 183.134 274.666 183.134 274.666 183.115C273.852 179.569 272.917 176.145 272.798 172.702C272.798 172.685 272.763 172.685 272.763 172.702C270.911 179.707 271.101 188.946 271.12 189.792C271.12 189.811 271.136 189.828 271.155 189.811Z" fill="#0E232D"/>
</g>
<defs>
<linearGradient id="paint0_linear_3544_7430" x1="317.144" y1="130.72" x2="350.173" y2="99.5424" gradientUnits="userSpaceOnUse">
<stop stop-color="#CC204A"/>
<stop offset="1" stop-color="#FD4E25"/>
</linearGradient>
<linearGradient id="paint1_linear_3544_7430" x1="80.9909" y1="56.2689" x2="81.8651" y2="56.022" gradientUnits="userSpaceOnUse">
<stop stop-color="#CC204A"/>
<stop offset="1" stop-color="#FD4E25"/>
</linearGradient>
<linearGradient id="paint2_linear_3544_7430" x1="80.9909" y1="74.8695" x2="81.8651" y2="74.6226" gradientUnits="userSpaceOnUse">
<stop stop-color="#CC204A"/>
<stop offset="1" stop-color="#FD4E25"/>
</linearGradient>
<linearGradient id="paint3_linear_3544_7430" x1="80.4249" y1="71.5035" x2="87.1192" y2="67.4801" gradientUnits="userSpaceOnUse">
<stop stop-color="#CC204A"/>
<stop offset="1" stop-color="#FD4E25"/>
</linearGradient>
<linearGradient id="paint4_linear_3544_7430" x1="202.719" y1="167.87" x2="220.873" y2="139.002" gradientUnits="userSpaceOnUse">
<stop stop-color="#CC204A"/>
<stop offset="1" stop-color="#FD4E25"/>
</linearGradient>
<linearGradient id="paint5_linear_3544_7430" x1="167.427" y1="228.06" x2="189.315" y2="207.399" gradientUnits="userSpaceOnUse">
<stop stop-color="#CC204A"/>
<stop offset="1" stop-color="#FD4E25"/>
</linearGradient>
<linearGradient id="paint6_linear_3544_7430" x1="81.3445" y1="143.928" x2="89.6738" y2="135.848" gradientUnits="userSpaceOnUse">
<stop stop-color="#CC204A"/>
<stop offset="1" stop-color="#FD4E25"/>
</linearGradient>
<linearGradient id="paint7_linear_3544_7430" x1="80.9741" y1="130.611" x2="82.4235" y2="126.907" gradientUnits="userSpaceOnUse">
<stop stop-color="#CC204A"/>
<stop offset="1" stop-color="#FD4E25"/>
</linearGradient>
<clipPath id="clip0_3544_7430">
<rect width="375" height="281.25" fill="white"/>
</clipPath>
</defs>
</svg>
