<svg width="375" height="282" viewBox="0 0 375 282" fill="none" xmlns="http://www.w3.org/2000/svg">
<g clip-path="url(#clip0_3544_7599)">
<path d="M375 0H0V281.25H375V0Z" fill="white"/>
<path d="M279.867 156.102C286.87 156.102 292.547 150.427 292.547 143.422C292.547 136.419 286.87 130.742 279.867 130.742C272.862 130.742 267.188 136.419 267.188 143.422C267.188 150.427 272.862 156.102 279.867 156.102Z" fill="url(#paint0_linear_3544_7599)"/>
<path d="M110.506 201.602C114.999 201.602 118.639 197.962 118.639 193.469C118.639 188.974 114.999 185.334 110.506 185.334C106.011 185.334 102.371 188.974 102.371 193.469C102.371 197.962 106.011 201.602 110.506 201.602Z" fill="#FD4E25"/>
<path d="M249.947 54.0078C254.429 54.0078 258.057 50.3773 258.057 45.8984C258.057 41.4172 254.429 37.7891 249.947 37.7891C245.468 37.7891 241.838 41.4172 241.838 45.8984C241.838 50.3773 245.468 54.0078 249.947 54.0078Z" fill="#FD4E25"/>
<path opacity="0.2" d="M92.8359 57.4717H184.125C191.358 57.4717 197.217 63.3334 197.217 70.5639V161.445C197.217 168.676 191.358 174.537 184.125 174.537H92.8359C85.6055 174.537 79.7461 168.676 79.7461 161.445V70.5357C79.7461 63.3334 85.6055 57.4717 92.8359 57.4717Z" fill="black"/>
<path d="M285.081 115.024H254.887C248.005 115.024 242.43 109.448 242.43 102.567C242.43 101.859 242.484 101.179 242.594 100.471L245.584 82.8184C246.128 79.5559 248.985 77.1348 252.304 77.1348H287.664C290.983 77.1348 293.812 79.5277 294.384 82.8184L297.374 100.471C298.518 107.245 293.948 113.693 287.174 114.834C286.495 114.97 285.787 115.024 285.081 115.024Z" fill="#FFC930"/>
<path opacity="0.2" d="M243.736 93.7793L242.838 99.1113C249.611 97.6699 259.239 96.7723 269.875 96.7723C280.675 96.7723 290.386 97.698 297.185 99.1934L296.261 93.7793H243.736Z" fill="black"/>
<path d="M266.176 77.0527C268.278 77.0527 269.984 75.3465 269.984 73.2441C269.984 71.1418 268.278 69.4355 266.176 69.4355C264.073 69.4355 262.367 71.1418 262.367 73.2441C262.367 75.3465 264.073 77.0527 266.176 77.0527Z" fill="url(#paint1_linear_3544_7599)"/>
<path d="M273.791 77.0527C275.895 77.0527 277.599 75.3465 277.599 73.2441C277.599 71.1418 275.895 69.4355 273.791 69.4355C271.688 69.4355 269.984 71.1418 269.984 73.2441C269.984 75.3465 271.688 77.0527 273.791 77.0527Z" fill="url(#paint2_linear_3544_7599)"/>
<path d="M243.734 93.916H296.232" stroke="black" stroke-width="0.9375" stroke-linecap="round" stroke-linejoin="round"/>
<path d="M269.984 101.941V93.916" stroke="#CCCCCC" stroke-width="0.9375" stroke-linecap="round" stroke-linejoin="round"/>
<path d="M155.745 190.016C163.791 190.016 170.325 196.55 170.325 204.596V215.548H141.164V204.596C141.164 196.55 147.698 190.016 155.745 190.016Z" stroke="#3C3C3C" stroke-width="0.9375" stroke-linecap="round" stroke-linejoin="round"/>
<path d="M182.114 219.64C182.114 234.218 170.302 246.033 155.721 246.033C141.141 246.033 129.328 234.218 129.328 219.64V208.5H182.114V219.64Z" fill="#CECDCE"/>
<path opacity="0.2" d="M162.488 242.777C147.907 242.777 136.095 230.963 136.095 216.384L136.118 208.5H129.328V219.616C129.328 234.197 141.164 246.033 155.745 246.033C160.976 246.033 166.045 244.498 170.393 241.591C167.836 242.405 165.162 242.777 162.488 242.777Z" fill="#3C3C3C"/>
<path d="M149.28 206.014H162.209C163.418 206.014 164.419 207.012 164.419 208.221V218.686C164.419 223.477 160.535 227.361 155.745 227.361C150.954 227.361 147.07 223.477 147.07 218.686V208.221C147.07 207.012 148.048 206.014 149.28 206.014Z" fill="#FFC930"/>
<path d="M155.745 221.081C157.17 221.081 158.325 219.926 158.325 218.501C158.325 217.073 157.17 215.918 155.745 215.918C154.32 215.918 153.164 217.073 153.164 218.501C153.164 219.926 154.32 221.081 155.745 221.081Z" fill="white"/>
<path d="M145.166 94.0014V121.74C129.843 121.74 117.426 109.322 117.426 94.0014C117.426 78.6779 129.843 66.2607 145.166 66.2607V94.0014Z" fill="white"/>
<path d="M145.166 94.0012L171.557 85.4277C176.282 99.9895 168.327 115.634 153.768 120.389C151.007 121.301 148.1 121.77 145.194 121.739L145.166 94.0012Z" fill="#231F20"/>
<path d="M145.166 94.0008L167.621 77.707C169.354 80.0555 170.675 82.6688 171.557 85.4273L145.166 94.0008Z" fill="#FD4E25"/>
<path d="M145.166 94.0014V66.2607C154.354 66.2607 162.191 70.2521 167.621 77.7076L145.166 94.0014Z" fill="#FFC930"/>
<path d="M145.195 109.559C153.787 109.559 160.755 102.594 160.755 94.0016C160.755 85.4094 153.787 78.4414 145.195 78.4414C136.602 78.4414 129.637 85.4094 129.637 94.0016C129.637 102.594 136.602 109.559 145.195 109.559Z" fill="#CECDCE"/>
<path d="M145.167 94.0012C143.405 94.0012 141.996 92.5621 141.996 90.7996C141.996 89.0395 143.435 87.6309 145.195 87.6309C146.958 87.6309 148.366 89.0676 148.366 90.7996" stroke="#231F20" stroke-width="0.9375" stroke-linecap="round" stroke-linejoin="round"/>
<path d="M145.167 94C146.927 94 148.366 95.4086 148.366 97.1687C148.366 98.9312 146.958 100.368 145.195 100.368C143.435 100.368 141.996 98.9594 141.996 97.1992" stroke="#231F20" stroke-width="0.9375" stroke-linecap="round" stroke-linejoin="round"/>
<path d="M145.166 87.6297V85.9844" stroke="#231F20" stroke-width="0.9375" stroke-linecap="round" stroke-linejoin="round"/>
<path d="M145.137 102.014V100.369" stroke="#231F20" stroke-width="0.9375" stroke-linecap="round" stroke-linejoin="round"/>
<path d="M161.537 48H119.281C111.824 48.0085 105.781 54.0514 105.773 61.5087V161.492C105.781 168.949 111.824 174.992 119.281 175H161.537C168.995 174.992 175.038 168.949 175.046 161.492V61.5087C175.038 54.0514 168.995 48.0085 161.537 48V48ZM140.41 163.455C137.221 163.455 134.636 160.871 134.636 157.681C134.636 154.494 137.221 151.909 140.41 151.909C143.598 151.909 146.182 154.494 146.182 157.681C146.182 160.871 143.598 163.455 140.41 163.455ZM149.069 65.3182H131.751C130.157 65.3182 128.864 64.0255 128.864 62.4315C128.864 60.8375 130.157 59.5458 131.751 59.5458H149.069C150.663 59.5458 151.955 60.8375 151.955 62.4315C151.955 64.0255 150.663 65.3182 149.069 65.3182Z" fill="url(#paint3_linear_3544_7599)"/>
<path d="M233.961 235.756C234.449 232.536 235.028 226.419 235.028 219.91L214.916 220.836C215.148 224.241 215.706 227.045 215.75 229.548L220.107 241.873L233.961 235.756Z" fill="white"/>
<path d="M175.901 105.852C174.626 105.065 173.794 104.601 172.819 104.09C172.519 103.928 172.193 103.766 171.799 103.534C164.154 99.4797 159.452 98.6922 155.63 98.2516C155.351 98.2281 155.095 98.207 154.863 98.207C152.686 98.207 152.363 99.55 152.363 99.55H152.339C151.807 99.55 151.413 99.7117 151.158 100.035C150.647 100.684 150.832 101.727 150.832 101.727C150.832 101.727 149.93 102.283 149.86 103.117C149.815 103.673 150.138 104.23 150.832 104.763C152.501 106.105 156.417 108.191 156.949 108.47V108.494C156.649 108.447 155.327 108.353 153.985 108.353C152.131 108.353 149.906 108.515 149.906 109.258C149.906 110.554 157.067 111.714 157.367 111.759C157.39 111.782 160.008 113.38 166.102 114.726C166.102 114.726 167.213 116.301 168.764 118.176L169.228 118.131L175.901 105.852Z" fill="#FABFA8"/>
<path d="M229.304 85.3029C226.964 81.8951 224.021 77.6787 220.962 71.2381C216.607 62.0178 211.139 60.6279 208.266 60.6279C205.789 60.6279 203.911 61.624 203.054 62.4818C200.993 64.5654 201.085 67.6475 201.155 70.3592C201.179 71.2381 201.202 72.0725 201.132 72.792C201.061 72.8154 199.416 73.2537 199.416 73.9029C199.416 74.3904 199.857 74.9928 200.714 75.6865C200.761 75.71 200.785 75.7334 200.785 75.7568C200.321 78.6982 200.089 82.8232 203.286 84.4217C203.911 84.7451 204.816 84.9092 205.927 84.9092C207.293 84.9092 208.521 84.6537 208.545 84.6537L208.986 87.41L229.304 85.3029Z" fill="#FABFA8"/>
<path d="M203.076 78.6977C203.564 78.3977 204.096 78.1422 204.63 77.957" stroke="#1A110E" stroke-width="0.9375" stroke-linecap="round" stroke-linejoin="round"/>
<path d="M235.696 141.183C235.79 141.092 245.774 132.171 247.328 125.22C249.112 117.251 243.365 104.255 230.252 86.5762C229.813 85.9738 229.487 85.5332 229.302 85.2801C228.862 84.6777 228.491 84.1434 228.168 83.6582L208.984 87.3637L209.448 90.284C202.173 92.1613 197.331 97.6504 193.809 101.682C193.462 102.075 193.115 102.469 192.789 102.842C188.643 107.52 185.076 111.692 185.029 111.736C184.982 111.715 180.325 108.516 175.645 105.689L168.578 117.968C172.03 122.093 178.982 129.089 186.883 129.554C187.021 129.554 187.159 129.577 187.3 129.577C194.922 129.577 205.717 117.136 205.834 116.996L212.737 135.045L232.176 133.723L235.696 141.183Z" fill="#CECDCE"/>
<path opacity="0.3" d="M235.698 141.207C235.745 141.16 240.889 136.55 244.362 131.431C236.37 129.901 235.606 117.298 235.583 117.16L233.938 131.176L235.698 141.207Z" fill="#C69AC6"/>
<path d="M198.699 59.1916C199.51 58.1721 200.715 57.5932 202.011 57.5932C202.962 57.5932 203.865 57.9166 204.608 58.4979C204.837 58.683 205.116 58.9151 205.325 59.2151C206.832 58.2658 208.662 57.7784 210.655 57.7784C212.183 57.7784 213.69 58.0573 215.124 58.5893C213.943 56.3182 214.337 52.519 216.376 48.9987C219.017 44.4119 223.395 42.0002 226.13 43.5776C228.863 45.1526 228.957 50.1565 226.315 54.7432C224.3 58.2424 221.288 60.4666 218.738 60.6283C219.411 61.1604 220.06 61.7627 220.615 62.4119C229.536 72.7455 231.922 73.6268 236.673 75.3401C237.877 75.7807 239.244 76.2893 240.91 77.0088C251.291 81.5252 251.405 88.8237 251.405 88.894L245.429 91.1651C245.382 91.1182 242.905 86.6229 238.618 85.4885C240.031 87.6659 241.051 90.0518 241.63 92.5994L222.84 99.6213C222.748 99.551 213.781 91.9291 214.848 77.726C217.465 76.2448 218.3 74.3908 218.532 73.1158C218.808 71.5877 218.368 70.1979 217.812 69.5252C217.348 68.9463 216.423 68.344 215.312 68.344C214.198 68.344 212.53 68.9463 210.978 71.8198C204.955 70.5448 201.34 67.9737 201.294 67.9502C199.44 66.5815 198.258 64.7534 197.958 62.8057C197.794 61.4158 198.05 60.0729 198.699 59.1916Z" fill="#A56250"/>
<path d="M234.1 131.175L235.93 115.42" stroke="#7D7D7D" stroke-width="0.9375" stroke-linecap="round" stroke-linejoin="round"/>
<path d="M205.836 116.996C207.364 115.097 208.266 113.775 208.266 113.775" stroke="#7D7D7D" stroke-width="0.9375" stroke-linecap="round" stroke-linejoin="round"/>
<path d="M209.449 90.2844L211.162 89.8438" stroke="#7D7D7D" stroke-width="0.9375" stroke-linecap="round" stroke-linejoin="round"/>
<path d="M215.148 72.7461L213.781 74.3445" stroke="#1A110E" stroke-width="0.9375" stroke-linecap="round" stroke-linejoin="round"/>
<path d="M238.201 122.719L235.004 123.645" stroke="#7D7D7D" stroke-width="0.9375" stroke-linecap="round" stroke-linejoin="round"/>
<path opacity="0.3" d="M211.718 83.7969L208.545 84.6312L208.868 86.7172L211.718 83.7969Z" fill="#D6683D"/>
<path opacity="0.3" d="M185.03 111.783C185.03 111.783 183.849 110.972 181.925 109.676L181.602 116.023L185.03 111.783Z" fill="#C69AC6"/>
<path d="M208.545 84.6543C209.403 84.3988 210.237 84.0051 211.048 83.6582" stroke="#1A110E" stroke-width="0.9375" stroke-linecap="round" stroke-linejoin="round"/>
<path d="M152.643 99.457C155.931 100.13 159.128 101.126 162.233 102.424" stroke="#1A110E" stroke-width="0.9375" stroke-linecap="round" stroke-linejoin="round"/>
<path d="M150.811 101.961C156.972 104.023 160.401 105.622 160.401 105.622" stroke="#1A110E" stroke-width="0.9375" stroke-linecap="round" stroke-linejoin="round"/>
<path d="M203.68 73.7414C203.296 73.7414 202.986 73.4297 202.986 73.0453C202.986 72.6609 203.296 72.3516 203.68 72.3516C204.064 72.3516 204.376 72.6609 204.376 73.0453C204.376 73.4297 204.064 73.7414 203.68 73.7414Z" fill="black"/>
<path opacity="0.3" d="M221.914 131.151C215.056 123.273 210.84 111.25 210.793 111.133C208.939 113.451 205.857 116.995 205.812 117.018L211.28 131.174L221.914 131.151Z" fill="#C69AC6"/>
<path d="M185.029 111.734L182.781 114.284" stroke="#7D7D7D" stroke-width="0.9375" stroke-linecap="round" stroke-linejoin="round"/>
<path d="M232.5 242.984C232.523 242.913 232.988 242.266 233.96 235.755H228.401C226.941 235.755 225.504 236.149 224.205 236.866L221.194 238.582C221.009 238.673 220.8 238.744 220.615 238.744C220.5 238.744 220.383 238.72 220.268 238.673C219.989 238.582 219.757 238.373 219.619 238.118C219.48 237.841 219.457 237.539 219.572 237.26L220.847 233.602C220.962 233.299 221.009 232.976 221.009 232.605C221.009 230.913 219.642 229.547 217.95 229.547H215.749V230.449C215.705 234.921 213.316 236.287 210.816 237.724C209.517 238.467 208.174 239.231 207.04 240.459C205.395 241.941 205.395 242.984 205.395 242.984L207.131 244.097L231.063 245.44L232.5 242.984Z" fill="#CECDCE"/>
<path d="M231.643 246.066C231.69 245.905 232.06 244.838 232.524 243.031C232.524 243.008 232.524 242.984 232.501 242.984C231.296 242.984 206.251 242.984 205.395 242.984C205.372 242.984 205.372 242.984 205.372 243.008C204.978 243.934 204.793 244.953 204.816 246.066C204.816 246.066 230.717 246.09 231.622 246.09C231.643 246.09 231.643 246.09 231.643 246.066Z" fill="#F7F7F7"/>
<path d="M235.028 220.857C235.051 220.44 235.028 220.07 235.028 219.652C235.028 219.444 235.028 219.235 235.028 219.027C234.887 210.177 233.568 204.615 232.41 199.728C231.414 195.512 230.462 191.525 230.462 186.174C230.462 179.595 231.784 173.895 233.312 167.293C234.308 162.983 235.445 158.094 236.394 152.187C238.41 139.536 234.193 134.37 234.146 134.3L212.53 133.906C212.486 134.162 207.873 155.64 208.778 179.78C209.242 191.989 211.234 201.859 212.994 210.57C213.735 214.184 214.501 218.888 215.01 222.132L235.028 220.857Z" fill="#FABFA8"/>
<path opacity="0.3" d="M232.386 199.637C231.389 195.444 230.461 191.483 230.461 186.177C230.461 179.598 231.783 173.898 233.311 167.295C234.307 162.985 235.444 158.096 236.393 152.19C237.436 145.585 236.74 140.211 235.953 136.876C235.118 133.262 234.007 131.176 233.984 131.152H211.257C211.21 131.408 207.851 155.619 208.753 179.759C208.847 182.284 209.009 184.972 209.309 188.007C209.518 188.007 209.726 188.007 209.935 188.007C215.541 188.007 220.198 191.668 224.717 195.235C227.241 197.227 229.882 199.29 232.594 200.633H232.618L232.386 199.637Z" fill="#D6683D"/>
<path d="M213.062 236.012L215.378 238.189" stroke="#F7F7F7" stroke-width="0.9375" stroke-linecap="round" stroke-linejoin="round"/>
<path d="M210.816 237.26L212.415 240.227" stroke="#F7F7F7" stroke-width="0.9375" stroke-linecap="round" stroke-linejoin="round"/>
<path d="M282.197 222.458C280.249 217.198 277.261 211.128 273.855 205.824L255.738 217.337C258.68 220.93 261.159 224.009 262.711 226.234L270.773 235.85L282.197 222.458Z" fill="white"/>
<path d="M284.883 231.377C284.883 231.33 284.305 227.972 282.198 222.434L276.659 225.469C275.408 226.165 274.32 227.184 273.554 228.41L271.77 231.284C271.632 231.492 271.423 231.63 271.191 231.677C271.144 231.677 271.076 231.701 271.03 231.701C270.636 231.701 270.312 231.422 270.219 231.007L269.176 225.169C269.152 225.005 269.084 224.82 268.99 224.658C268.712 224.126 268.156 223.8 267.554 223.8C267.277 223.8 266.998 223.87 266.766 224.009L262.688 226.256C262.873 226.512 263.014 226.767 263.152 226.976C265.447 230.82 264.195 233.231 262.897 235.779C262.226 237.098 261.507 238.467 261.23 240.11C260.858 242.196 261.207 243.956 262.388 245.695L262.92 245.023L284.883 231.377Z" fill="#CECDCE"/>
<path d="M285.001 231.609C285.001 231.586 284.793 230.473 284.235 228.527L261.275 243.263C261.484 244.259 261.878 245.208 262.459 246.066L285.001 231.609Z" fill="#F7F7F7"/>
<path d="M274.619 207.029C274.457 206.75 274.296 206.471 274.134 206.239C270.032 199.637 267.182 196.37 264.403 193.196C262.017 190.463 259.769 187.892 256.919 183.42C253.814 178.578 252.424 171.812 250.943 164.654C249.574 158.028 248.161 151.194 245.289 144.636C242.069 137.27 234.7 136.691 234.632 136.644L220.221 134.211C220.268 134.605 225.11 169.866 239.149 194.748C243.321 202.187 250.061 210.411 255.459 217.013L256.734 218.565L274.619 207.029Z" fill="#FABFA8"/>
<path opacity="0.3" d="M264.1 195.327C264.773 195.327 265.469 195.304 266.186 195.28C265.584 194.561 265.005 193.867 264.426 193.218C262.04 190.462 259.769 187.844 256.849 183.325C253.769 178.506 252.356 171.742 250.872 164.605C249.506 157.98 248.069 151.122 245.219 144.543L225.318 158.327C228.213 169.448 231.621 179.27 235.443 187.541C241.511 188.561 245.566 190.277 249.136 191.781C253.629 193.682 257.498 195.327 264.1 195.327Z" fill="#D6683D"/>
<path d="M263.963 233L266.951 233.626" stroke="#F7F7F7" stroke-width="0.9375" stroke-linecap="round" stroke-linejoin="round"/>
<path d="M262.967 235.129L265.585 236.589" stroke="#F7F7F7" stroke-width="0.9375" stroke-linecap="round" stroke-linejoin="round"/>
<path d="M211.279 131.176H234.098C234.168 131.199 240.4 132.889 248.463 145.1C252.911 151.82 257.659 154.946 261.855 157.702C264.681 159.58 267.299 161.293 269.568 163.82L264.009 174.662L208.661 175.634C208.244 152.93 211.232 131.408 211.279 131.176Z" fill="#FD4E25"/>
<path d="M209.1 185.481C209.124 185.481 210.722 184.649 213.643 183.862C216.329 183.142 220.754 182.261 226.407 182.261C227.056 182.261 227.729 182.261 228.378 182.284C230.37 182.355 232.13 182.54 234.031 182.748C236.44 183.004 238.941 183.28 242 183.28C245.661 183.28 249.668 182.887 254.187 182.052C266.581 179.807 273.741 170.725 273.809 170.631C272.721 167.966 271.285 165.651 269.569 163.797C266.698 166.532 260.628 171.351 252.078 172.902C247.514 173.737 243.528 174.13 239.846 174.13C236.787 174.13 234.284 173.852 231.875 173.596C230.023 173.387 228.261 173.202 226.292 173.134C225.643 173.111 224.993 173.111 224.346 173.111C217.163 173.111 211.836 174.477 208.662 175.612C208.683 176.957 208.707 178.347 208.754 179.713C208.824 181.659 209.077 185.46 209.1 185.481Z" fill="#CC204A"/>
<path d="M41.4919 216.823C40.6603 226.124 47.5244 234.338 56.8253 235.171C66.1248 236.003 74.3399 229.138 75.1715 219.837C76.0046 210.538 69.1405 202.324 59.8396 201.491C50.5386 200.658 42.3246 207.522 41.4919 216.823Z" fill="#FFC930"/>
<path d="M64.8242 226.201L62.8298 223.816" stroke="#232324" stroke-width="0.486305" stroke-linecap="round" stroke-linejoin="round"/>
<path d="M53.7285 212.924L51.7352 210.538" stroke="#232324" stroke-width="0.486305" stroke-linecap="round" stroke-linejoin="round"/>
<path d="M60.3161 225.828L63.812 222.908C65.1732 221.77 65.3552 219.734 64.2178 218.373C63.3049 217.28 61.781 216.927 60.4723 217.478L56.3644 219.255C55.0059 219.85 53.4237 219.459 52.4822 218.333C51.3028 216.922 51.4901 214.824 52.9027 213.644L56.6493 210.512" stroke="#232324" stroke-width="1.17187" stroke-linecap="round" stroke-linejoin="round"/>
</g>
<defs>
<linearGradient id="paint0_linear_3544_7599" x1="279.883" y1="156.102" x2="292.542" y2="144.153" gradientUnits="userSpaceOnUse">
<stop stop-color="#CC204A"/>
<stop offset="1" stop-color="#FD4E25"/>
</linearGradient>
<linearGradient id="paint1_linear_3544_7599" x1="266.181" y1="77.0527" x2="269.983" y2="73.4637" gradientUnits="userSpaceOnUse">
<stop stop-color="#CC204A"/>
<stop offset="1" stop-color="#FD4E25"/>
</linearGradient>
<linearGradient id="paint2_linear_3544_7599" x1="273.797" y1="77.0527" x2="277.599" y2="73.4649" gradientUnits="userSpaceOnUse">
<stop stop-color="#CC204A"/>
<stop offset="1" stop-color="#FD4E25"/>
</linearGradient>
<linearGradient id="paint3_linear_3544_7599" x1="140.41" y1="48" x2="140.41" y2="175" gradientUnits="userSpaceOnUse">
<stop stop-color="#FD4E25"/>
<stop offset="1" stop-color="#BF0A30"/>
</linearGradient>
<clipPath id="clip0_3544_7599">
<rect width="375" height="281.25" fill="white"/>
</clipPath>
</defs>
</svg>
