<svg width="375" height="282" viewBox="0 0 375 282" fill="none" xmlns="http://www.w3.org/2000/svg">
<g clip-path="url(#clip0_3544_7338)">
<path d="M375 0H0V281.25H375V0Z" fill="white"/>
<path d="M242.328 124.174L263.264 137.801" stroke="#17151C" stroke-width="0.486305" stroke-linecap="round" stroke-linejoin="round"/>
<path d="M245.066 116.869L259.191 120.011" stroke="#17151C" stroke-width="0.486305" stroke-linecap="round" stroke-linejoin="round"/>
<path d="M255.789 47.3286L243.959 37.3047L227.094 57.4961L255.789 47.3286Z" fill="#CC204A"/>
<path d="M326.525 61.6265L272.25 59.7603L292.325 9.29764L301.958 23.9318L328.562 6.54395L343.592 29.5413L316.989 46.9291L326.525 61.6265Z" fill="#FFC930"/>
<path d="M45.6104 55.8823L27.4883 42.5332" stroke="#17151C" stroke-width="0.486305" stroke-linecap="round" stroke-linejoin="round"/>
<path d="M42.7676 62.311L30.2246 58.75" stroke="#17151C" stroke-width="0.486305" stroke-linecap="round" stroke-linejoin="round"/>
<path d="M171.482 22.4424C170.651 31.743 177.515 39.957 186.816 40.7897C196.115 41.6217 204.33 34.7572 205.162 25.4566C205.995 16.1568 199.131 7.94282 189.83 7.11009C180.529 6.27736 172.315 13.1415 171.482 22.4424Z" fill="#FFC930"/>
<path d="M194.814 31.8184L192.82 29.4329" stroke="#232324" stroke-width="0.486305" stroke-linecap="round" stroke-linejoin="round"/>
<path d="M183.719 18.5449L181.725 16.1591" stroke="#232324" stroke-width="0.486305" stroke-linecap="round" stroke-linejoin="round"/>
<path d="M190.306 31.4473L193.802 28.5267C195.163 27.3893 195.345 25.3534 194.208 23.9923C193.295 22.8992 191.771 22.5459 190.463 23.0969L186.355 24.8746C184.996 25.4687 183.414 25.0782 182.472 23.9523C181.293 22.5409 181.48 20.4432 182.893 19.2634L186.64 16.1315" stroke="#232324" stroke-width="1.17187" stroke-linecap="round" stroke-linejoin="round"/>
<path d="M125 39.9502L135.851 30.7578L151.316 49.2751L125 39.9502Z" fill="#CC204A"/>
<path d="M98.8825 97.3526C84.4366 108.898 63.419 106.553 51.8733 92.1072C40.3268 77.6604 43.4669 56.0075 57.8786 44.4891C72.2904 32.9707 92.5814 35.8965 104.128 50.3434C115.674 64.7894 113.328 85.8069 98.8825 97.3526Z" fill="url(#paint0_linear_3544_7338)"/>
<path d="M111.217 67.2188L66.7726 102.74" stroke="black" stroke-width="0.486305" stroke-linecap="round" stroke-linejoin="round"/>
<path d="M104.127 50.3438L51.8724 92.1076" stroke="black" stroke-width="0.486305" stroke-linecap="round" stroke-linejoin="round"/>
<path d="M89.1399 39.666L44.8126 75.2637" stroke="black" stroke-width="0.486305" stroke-linecap="round" stroke-linejoin="round"/>
<path d="M57.878 44.4886L98.8819 97.3521" stroke="black" stroke-width="0.486305" stroke-linecap="round" stroke-linejoin="round"/>
<path d="M98.8822 97.3514C98.8822 97.3514 114.051 47.1676 57.8783 44.4879" stroke="black" stroke-width="0.486305" stroke-linecap="round" stroke-linejoin="round"/>
<path d="M98.8477 97.3795C98.8477 97.3795 48.3163 100.838 57.878 44.4886" stroke="black" stroke-width="0.486305" stroke-linecap="round" stroke-linejoin="round"/>
<path d="M294.141 259.679C286.8 228.338 248.4 211.623 225.416 226.418C225.416 226.418 208.023 179.605 168.889 184.291C129.754 188.978 119.758 234.211 119.758 234.211C119.758 234.211 87.909 225.571 80.625 259.679H294.141Z" fill="#FFD1C6"/>
<path d="M225.416 226.418C226.658 231.275 225.416 239.858 225.416 239.858V226.418Z" fill="#FFD1C6"/>
<path d="M225.416 226.418C226.658 231.275 225.416 239.858 225.416 239.858" stroke="#ABABAB" stroke-width="0.710806" stroke-linecap="round" stroke-linejoin="round"/>
<path d="M119.758 234.211C118.913 238.73 118.291 243.247 117.951 247.821L119.758 234.211Z" fill="#FFD1C6"/>
<path d="M119.758 234.211C118.913 238.73 118.291 243.247 117.951 247.821" stroke="#ABABAB" stroke-width="0.710806" stroke-linecap="round" stroke-linejoin="round"/>
<path d="M247.681 159.109L149.982 158.891C139.285 158.891 130.627 167.548 130.627 178.246V240.257C130.627 250.954 139.285 259.612 149.982 259.612H247.464L247.681 159.109Z" fill="#CC204A"/>
<path d="M218.01 159.953C218.01 159.306 218.534 158.781 219.182 158.781H248.415C249.063 158.781 249.587 159.306 249.587 159.953V258.331C249.587 258.978 249.063 259.503 248.415 259.503H219.182C218.534 259.503 218.01 258.978 218.01 258.331V159.953Z" fill="#FD4E25"/>
<path d="M129.294 225.856H158.366C167.54 225.856 174.999 218.422 174.999 209.223C174.999 200.048 167.567 192.59 158.366 192.59H129.294C127.007 192.59 125.182 194.441 125.182 196.7V221.717C125.182 224.031 127.033 225.856 129.294 225.856Z" fill="#FD4E25"/>
<path d="M157.577 216.709C153.458 216.709 150.119 213.37 150.119 209.251C150.119 205.132 153.458 201.793 157.577 201.793C161.696 201.793 165.035 205.132 165.035 209.251C165.035 213.37 161.696 216.709 157.577 216.709Z" fill="#CC204A"/>
<path d="M231.231 242.495L233.838 246.17L233.865 246.207H249.554V259.546H215.283L208.475 253.255L215.367 246.181L215.462 246.083L215.335 246.035L206.002 242.495H231.231Z" fill="#4D4A4F" stroke="url(#paint1_linear_3544_7338)" stroke-width="0.177702"/>
<path d="M215.16 259.545H202.976V244.387L215.226 243.837L215.16 259.545Z" fill="#231F20" stroke="url(#paint2_linear_3544_7338)" stroke-width="0.177702"/>
<path d="M214.895 228.077L218.105 232.655L218.132 232.693H233.821V246.03H199.55L193.449 240.538L199.586 232.659L199.648 232.579L199.562 232.528L191.455 227.741L214.895 228.077Z" fill="#4D4A4F" stroke="url(#paint3_linear_3544_7338)" stroke-width="0.177702"/>
<path d="M199.427 230.901V246.029H187.242L187.229 230.634L199.427 230.901Z" fill="#231F20" stroke="url(#paint4_linear_3544_7338)" stroke-width="0.177702"/>
<path d="M218.089 219.177V232.515H183.814L175.217 225.644L183.813 219.177H218.089Z" fill="#4D4A4F" stroke="url(#paint5_linear_3544_7338)" stroke-width="0.177702"/>
<path d="M183.695 219.177V232.515H171.509V219.177H183.695Z" fill="#231F20" stroke="url(#paint6_linear_3544_7338)" stroke-width="0.177702"/>
<path d="M202.906 246.119H233.91" stroke="url(#paint7_linear_3544_7338)" stroke-width="0.710806" stroke-linecap="round" stroke-linejoin="round"/>
<path d="M187.109 232.604H218.223" stroke="url(#paint8_linear_3544_7338)" stroke-width="0.710806" stroke-linecap="round" stroke-linejoin="round"/>
<path d="M171.42 219.088H208.172" stroke="url(#paint9_linear_3544_7338)" stroke-width="0.710806" stroke-linecap="round" stroke-linejoin="round"/>
<path d="M230.64 166.848L230.905 164.938C230.42 165.084 229.919 165.173 229.419 165.158C228.053 165.158 226.89 164.687 226.332 163.909C225.407 162.644 225.376 161.174 226.244 158.484C226.157 158.367 225.494 157.528 225.627 156.984C225.7 156.677 226.157 156.456 226.965 156.337L227.038 156.072C227.553 154.544 227.978 153.206 228.582 152.193C229.213 151.134 230.492 151.898 231.8 151.399C232.801 151.001 233.227 151.001 234.301 151.001C236.358 151.001 236.504 150.928 237.872 152.133C240.033 154.089 239.71 156.382 239.328 158.381L239.504 159.086C239.328 160.131 240.312 162.688 239.886 164.863C239.813 165.261 239.68 165.688 239.607 166.04L239.063 166.966L230.64 166.848Z" fill="#F0BBAF"/>
<path opacity="0.3" d="M230.905 164.938L230.641 166.848L231.993 166.893C231.993 166.893 234.344 163.438 233.169 164.026C232.434 164.394 231.684 164.702 230.905 164.938Z" fill="black"/>
<path d="M238.93 164.922C237.739 164.922 235.52 164.688 234.181 163.143L234.123 163.085L234.181 163.056C234.284 163.012 236.564 161.835 236.961 160.277C237.092 159.733 236.975 159.175 236.651 158.735C236.328 158.278 235.798 158.043 235.065 158.043C233.785 158.043 232.33 158.749 232.316 158.763L232.285 158.793L232.257 158.763C231.432 157.809 232.065 156.426 232.388 155.852C232.419 155.81 232.374 155.765 232.33 155.779C231.918 155.897 231.493 155.955 231.036 155.986C230.595 155.986 230.331 155.868 230.228 155.648C230.066 155.294 230.316 154.678 231.008 153.795C231.05 153.75 231.008 153.663 230.947 153.677C230.802 153.691 230.654 153.691 230.492 153.691C229.831 153.691 229.33 153.516 229.009 153.178C228.758 152.927 228.596 152.575 228.582 152.222V152.193C229.213 151.12 230.183 150.296 231.331 149.885C232.316 149.487 233.373 149.297 234.491 149.297C236.534 149.297 238.503 150.002 239.886 151.223C242.046 153.178 241.341 156.897 240.959 158.896L240.945 158.999C240.783 160.057 240.342 162.616 239.93 164.732L239.9 164.864L239.857 164.88C239.576 164.922 239.283 164.922 238.93 164.922Z" fill="#231F20"/>
<path d="M201.93 185.091C201.474 185.091 201.15 184.959 200.96 184.709C200.665 184.313 200.754 183.753 200.798 183.621C200.196 183.563 199.769 183.371 199.519 183.019C199.298 182.665 199.226 182.255 199.327 181.843C198.239 181.137 198.68 179.932 198.74 179.771C198.637 179.637 197.902 178.52 198.607 177.683C199.298 176.86 202.298 176.3 202.812 176.213C202.488 175.977 201.004 174.875 200.96 174.008C200.944 173.771 201.063 173.551 201.239 173.42C201.37 173.316 201.607 173.258 201.944 173.258C203.341 173.258 206.442 174.214 209.648 175.625C210.382 175.948 211.148 176.3 211.954 176.698L212.043 176.888L208.942 184.561L207.839 184.606C207.487 184.238 207.236 183.989 206.986 183.769C206.737 183.872 203.958 184.943 202.151 185.091C202.076 185.077 202.003 185.091 201.93 185.091Z" fill="#F0BBAF"/>
<path d="M227.244 160.235C227.832 160.323 228.479 159.985 228.803 159.734" stroke="black" stroke-width="0.710806" stroke-linecap="round" stroke-linejoin="round"/>
<path d="M228.757 157.411C229.001 157.411 229.198 157.213 229.198 156.97C229.198 156.727 229.001 156.529 228.757 156.529C228.514 156.529 228.316 156.727 228.316 156.97C228.316 157.213 228.514 157.411 228.757 157.411Z" fill="#231F20"/>
<path d="M233.021 161.085L234.418 160.248" stroke="black" stroke-width="0.710806" stroke-linecap="round" stroke-linejoin="round"/>
<path d="M230.904 164.938C231.286 164.82 231.978 164.614 232.329 164.408" stroke="black" stroke-width="0.710806" stroke-linecap="round" stroke-linejoin="round"/>
<path d="M198.74 179.77L201.415 178.873" stroke="black" stroke-width="0.710806" stroke-linecap="round" stroke-linejoin="round"/>
<path d="M199.328 181.844L202.21 180.801" stroke="black" stroke-width="0.710806" stroke-linecap="round" stroke-linejoin="round"/>
<path d="M200.799 183.623L202.988 182.99" stroke="black" stroke-width="0.710806" stroke-linecap="round" stroke-linejoin="round"/>
<path d="M202.812 176.213L204.797 175.934" stroke="black" stroke-width="0.710806" stroke-linecap="round" stroke-linejoin="round"/>
<path d="M256.101 241.6L255.967 241.571C254.219 238.426 251.822 235.073 249.499 231.81C247.926 229.591 246.443 227.503 245.236 225.592C243.781 223.284 242.459 220.888 241.252 218.433V218.418L241.503 217.947L255.203 217.654L256.174 218.463C256.335 218.742 256.438 218.948 256.614 219.227C257.615 220.903 258.761 222.314 259.893 223.666C260.495 224.386 261.069 225.077 261.583 225.782C262.729 227.327 263.671 228.62 264.552 230.031C265.817 232.075 266.964 234.163 267.962 236.338L267.948 236.382L266.096 247.716L256.101 241.6Z" fill="#FFC930"/>
<path opacity="0.3" d="M241.503 217.945L241.252 218.416V218.431C242.164 220.268 243.12 222.077 244.12 223.767L251.219 217.828L241.503 217.945Z" fill="black"/>
<path d="M255.262 257.079C255.351 256.55 255.526 256.05 255.777 255.579C255.878 255.389 255.997 255.169 256.115 254.918C256.717 253.786 257.629 252.066 258.158 250.714C258.951 248.67 258.245 245.687 255.967 241.571L258.599 240.395C259.569 239.968 260.701 240.233 261.392 241.042L264.39 244.526C264.493 244.644 264.699 244.555 264.685 244.393L264.17 239.851C264.053 238.792 264.627 237.779 265.611 237.367L267.962 236.338C267.962 236.338 268.095 236.603 268.11 236.661C269.961 240.852 271.402 245.246 272.373 249.715L272.314 249.802L272.152 250.332L255.351 257.698L255.262 257.079Z" fill="#232324"/>
<path d="M229.669 243.451C229.153 239.791 228.492 235.425 227.977 231.984C227.552 229.104 227.169 226.428 226.964 224.972C226.669 222.87 226.449 220.709 226.287 218.461L226.376 218.079L240.105 217.637V217.667C239.812 219.137 239.812 221.415 239.943 222.914C240.194 225.797 240.766 228.251 241.326 230.632L241.385 230.897C241.825 232.764 242.179 234.337 242.428 235.968C242.81 238.453 243.002 240.937 243.046 243.435L243.016 243.466L236.402 253.726L229.669 243.451Z" fill="#FFC930"/>
<path opacity="0.3" d="M240.091 224.326C240.033 223.872 239.988 223.415 239.944 222.946C239.812 221.446 239.812 219.168 240.105 217.696V217.668L227.434 217.977L240.091 224.326Z" fill="black"/>
<path d="M223.127 257.211C223.434 256.726 223.816 256.328 224.259 255.976C224.449 255.814 224.684 255.622 224.964 255.416C225.993 254.593 227.418 253.477 228.374 252.447C230.212 250.478 230.109 246.524 229.682 243.539L229.668 243.452H232.152C233.387 243.452 234.475 244.244 234.857 245.406L236.165 249.405C236.179 249.477 236.282 249.463 236.298 249.405L237.386 245.524C237.738 244.289 238.855 243.452 240.135 243.436H243.046V243.466C243.088 248.082 242.663 252.697 241.78 257.225L241.693 257.314L241.267 257.666C241.251 257.68 241.237 257.68 241.222 257.68L223.347 257.828C223.317 257.828 223.289 257.813 223.273 257.769L223.127 257.211Z" fill="#232324"/>
<path d="M229.639 250.008L232.285 250.905" stroke="black" stroke-width="0.710806" stroke-linecap="round" stroke-linejoin="round"/>
<path d="M228.803 251.949L231.109 253.552" stroke="black" stroke-width="0.710806" stroke-linecap="round" stroke-linejoin="round"/>
<path d="M258.336 247.289L261.099 246.348" stroke="black" stroke-width="0.710806" stroke-linecap="round" stroke-linejoin="round"/>
<path d="M258.496 249.359H261.098" stroke="black" stroke-width="0.710806" stroke-linecap="round" stroke-linejoin="round"/>
<path d="M222.452 259.592V259.562C222.438 258.725 222.672 257.902 223.129 257.211L241.782 257.225C241.576 258.195 241.372 259.077 241.21 259.562L222.452 259.592Z" fill="#4D4A4F"/>
<path d="M226.289 218.417C225.422 205.98 226.863 194.882 227.641 191.735L226.099 184.386C225.672 185.032 221.908 190.662 217.734 190.662C213.633 190.662 210.589 187.472 208.369 185.15C208.193 184.974 208.032 184.784 207.854 184.622L207.84 184.606L211.955 176.698L211.986 176.712C214.441 177.933 216.441 179.124 216.689 179.285C216.91 178.843 219.614 173.581 222.408 170.626C224.142 168.803 226.921 167.774 230.228 167.76C230.287 167.76 230.332 167.76 230.362 167.76L230.758 166.025L239.622 166.04C239.622 166.04 239.563 167.568 239.519 167.818C239.842 167.863 242.666 168.348 244.59 170.479C245.134 171.053 246.531 172.787 247.899 176.272C249.193 179.534 250.163 182.827 250.545 185.311C251.279 190.015 248.647 194.102 245.678 195.719C248.192 199.38 250.001 204.201 251.778 209.258C252.91 212.478 253.969 214.684 256.144 218.403L256.175 218.462H226.289V218.417Z" fill="#4D4A4F"/>
<path d="M226.817 196.779H232.006V200.954C232.006 203.07 230.286 204.79 228.17 204.79L226.156 204.762" stroke="black" stroke-width="0.710806" stroke-linecap="round" stroke-linejoin="round"/>
<path d="M227.67 191.752L241.575 191.736L243.898 180.932" stroke="black" stroke-width="0.710806" stroke-linecap="round" stroke-linejoin="round"/>
<path d="M242.621 186.871L245.075 187.548" stroke="black" stroke-width="0.710806" stroke-linecap="round" stroke-linejoin="round"/>
<path d="M226.113 184.312C228.319 181.078 229.347 179.461 229.347 179.461" stroke="black" stroke-width="0.710806" stroke-linecap="round" stroke-linejoin="round"/>
<path opacity="0.3" d="M226.098 184.386L227.919 181.622C228.067 181.372 228.184 181.182 228.463 181.182C228.685 181.182 228.905 181.269 229.067 181.43C229.229 181.592 229.302 181.798 229.302 182.019C229.271 184.974 227.272 189.574 227.244 189.633L227.214 189.708L226.098 184.386Z" fill="black"/>
<path d="M245.633 195.69C244.339 194.014 242.633 192.264 241.574 191.734" stroke="black" stroke-width="0.710806" stroke-linecap="round" stroke-linejoin="round"/>
<path opacity="0.3" d="M241.574 191.736L243.397 183.254C244.867 183.872 245.073 186.518 245.221 188.429C245.368 190.339 246.029 192.237 247.867 193.955L247.881 193.971L247.867 193.985C247.22 194.677 246.514 195.265 245.676 195.72C245.676 195.72 243.397 193.015 241.574 191.736Z" fill="black"/>
<path d="M255.572 259.579C255.218 258.799 255.101 257.932 255.263 257.079L272.374 249.715C272.55 250.538 272.683 251.346 272.772 252.169V252.185L255.572 259.579Z" fill="#4D4A4F"/>
<path d="M230.361 167.76L232.286 167.774" stroke="black" stroke-width="0.710806" stroke-linecap="round" stroke-linejoin="round"/>
<path d="M216.688 179.285L217.585 182.988" stroke="black" stroke-width="0.710806" stroke-linecap="round" stroke-linejoin="round"/>
<path d="M86.1258 207.131L90.675 195.811L82.275 204.019L77.7094 191.754L77.1141 204.591L67.3242 199.39L74.5852 208.453L63.0469 214.847L75.7008 213.134L72.9398 227.449L80.8219 215.027L89.3016 224.7L85.6055 211.826L98.1047 212.006L86.1258 207.131Z" fill="url(#paint10_linear_3544_7338)"/>
<path d="M290.968 130.561L295.519 119.241L287.117 127.448L282.554 115.184L281.956 128.02L272.166 122.82L279.427 131.883L267.889 138.277L280.543 136.563L277.782 150.879L285.664 138.457L294.143 148.13L290.45 135.255L302.949 135.436L290.968 130.561Z" fill="#4D4A4F"/>
</g>
<defs>
<linearGradient id="paint0_linear_3544_7338" x1="57.0847" y1="45.1236" x2="50.6785" y2="90.5923" gradientUnits="userSpaceOnUse">
<stop stop-color="#CC204A"/>
<stop offset="1" stop-color="#FD4E25"/>
</linearGradient>
<linearGradient id="paint1_linear_3544_7338" x1="227.608" y1="259.634" x2="233.693" y2="244.923" gradientUnits="userSpaceOnUse">
<stop stop-color="#CC204A"/>
<stop offset="1" stop-color="#FD4E25"/>
</linearGradient>
<linearGradient id="paint2_linear_3544_7338" x1="209.109" y1="259.634" x2="216.702" y2="254.029" gradientUnits="userSpaceOnUse">
<stop stop-color="#CC204A"/>
<stop offset="1" stop-color="#FD4E25"/>
</linearGradient>
<linearGradient id="paint3_linear_3544_7338" x1="212.544" y1="246.119" x2="219.53" y2="230.843" gradientUnits="userSpaceOnUse">
<stop stop-color="#CC204A"/>
<stop offset="1" stop-color="#FD4E25"/>
</linearGradient>
<linearGradient id="paint4_linear_3544_7338" x1="193.336" y1="246.119" x2="200.812" y2="240.512" gradientUnits="userSpaceOnUse">
<stop stop-color="#CC204A"/>
<stop offset="1" stop-color="#FD4E25"/>
</linearGradient>
<linearGradient id="paint5_linear_3544_7338" x1="196.652" y1="232.604" x2="200.696" y2="220.431" gradientUnits="userSpaceOnUse">
<stop stop-color="#CC204A"/>
<stop offset="1" stop-color="#FD4E25"/>
</linearGradient>
<linearGradient id="paint6_linear_3544_7338" x1="177.61" y1="232.604" x2="184.296" y2="226.831" gradientUnits="userSpaceOnUse">
<stop stop-color="#CC204A"/>
<stop offset="1" stop-color="#FD4E25"/>
</linearGradient>
<linearGradient id="paint7_linear_3544_7338" x1="218.428" y1="247.119" x2="218.462" y2="246.12" gradientUnits="userSpaceOnUse">
<stop stop-color="#CC204A"/>
<stop offset="1" stop-color="#FD4E25"/>
</linearGradient>
<linearGradient id="paint8_linear_3544_7338" x1="202.686" y1="233.604" x2="202.72" y2="232.605" gradientUnits="userSpaceOnUse">
<stop stop-color="#CC204A"/>
<stop offset="1" stop-color="#FD4E25"/>
</linearGradient>
<linearGradient id="paint9_linear_3544_7338" x1="189.819" y1="220.088" x2="189.848" y2="219.089" gradientUnits="userSpaceOnUse">
<stop stop-color="#CC204A"/>
<stop offset="1" stop-color="#FD4E25"/>
</linearGradient>
<linearGradient id="paint10_linear_3544_7338" x1="80.598" y1="227.449" x2="98.3946" y2="210.951" gradientUnits="userSpaceOnUse">
<stop stop-color="#CC204A"/>
<stop offset="1" stop-color="#FD4E25"/>
</linearGradient>
<clipPath id="clip0_3544_7338">
<rect width="375" height="281.25" fill="white"/>
</clipPath>
</defs>
</svg>
