<svg width="24" height="24" viewBox="0 0 24 24" fill="none" xmlns="http://www.w3.org/2000/svg">
<path d="M4 5.25C4 4.65326 4.23705 4.08097 4.65901 3.65901C5.08097 3.23705 5.65326 3 6.25 3H15.75C16.3467 3 16.919 3.23705 17.341 3.65901C17.7629 4.08097 18 4.65326 18 5.25V14H22V17.75C22 18.1768 21.9159 18.5994 21.7526 18.9937C21.5893 19.388 21.3499 19.7463 21.0481 20.0481C20.7463 20.3499 20.388 20.5893 19.9937 20.7526C19.5994 20.9159 19.1768 21 18.75 21H11.49C11.4969 20.9168 11.5002 20.8334 11.5 20.75V14.75C11.5 14.052 11.091 13.45 10.5 13.168V13C10.5 12.83 10.488 12.663 10.465 12.5H13.75C13.9489 12.5 14.1397 12.421 14.2803 12.2803C14.421 12.1397 14.5 11.9489 14.5 11.75C14.5 11.5511 14.421 11.3603 14.2803 11.2197C14.1397 11.079 13.9489 11 13.75 11H9.873C9.42686 10.3576 8.7782 9.88342 8.03076 9.65319C7.28332 9.42295 6.48026 9.45 5.75 9.73C5.19288 9.51667 4.59042 9.44954 4 9.535V5.25ZM18 19.5H18.75C19.2141 19.5 19.6592 19.3156 19.9874 18.9874C20.3156 18.6592 20.5 18.2141 20.5 17.75V15.5H18V19.5ZM7.5 7.75C7.5 8.164 7.836 8.5 8.25 8.5H13.75C13.9489 8.5 14.1397 8.42098 14.2803 8.28033C14.421 8.13968 14.5 7.94891 14.5 7.75C14.5 7.55109 14.421 7.36032 14.2803 7.21967C14.1397 7.07902 13.9489 7 13.75 7H8.25C8.05109 7 7.86032 7.07902 7.71967 7.21967C7.57902 7.36032 7.5 7.55109 7.5 7.75ZM1 14.75C1 14.5511 1.07902 14.3603 1.21967 14.2197C1.36032 14.079 1.55109 14 1.75 14H2V13C2.00001 12.5612 2.11553 12.1301 2.33496 11.75C2.55439 11.37 2.86998 11.0544 3.25003 10.835C3.63007 10.6156 4.06118 10.5001 4.50002 10.5001C4.93885 10.5001 5.36996 10.6156 5.75 10.835C6.13004 10.6156 6.56115 10.5001 6.99998 10.5001C7.43882 10.5001 7.86993 10.6156 8.24997 10.835C8.63002 11.0544 8.94561 11.37 9.16504 11.75C9.38447 12.1301 9.49999 12.5612 9.5 13V14H9.75C9.94891 14 10.1397 14.079 10.2803 14.2197C10.421 14.3603 10.5 14.5511 10.5 14.75V20.75C10.5 21.3467 10.2629 21.919 9.84099 22.341C9.41903 22.7629 8.84674 23 8.25 23H3.25C2.65326 23 2.08097 22.7629 1.65901 22.341C1.23705 21.919 1 21.3467 1 20.75V14.75ZM7 13V14H8V13C8.00003 12.8517 7.96707 12.7052 7.90352 12.5712C7.83996 12.4373 7.7474 12.3191 7.63253 12.2253C7.51767 12.1315 7.38338 12.0644 7.23938 12.0289C7.09539 11.9934 6.94531 11.9903 6.8 12.02C6.929 12.32 7 12.652 7 13ZM5.5 14V13C5.5 12.7348 5.39464 12.4804 5.20711 12.2929C5.01957 12.1054 4.76522 12 4.5 12C4.23478 12 3.98043 12.1054 3.79289 12.2929C3.60536 12.4804 3.5 12.7348 3.5 13V14H5.5Z" fill="url(#paint0_linear_3544_9934)"/>
<path d="M4 5.25C4 4.65326 4.23705 4.08097 4.65901 3.65901C5.08097 3.23705 5.65326 3 6.25 3H15.75C16.3467 3 16.919 3.23705 17.341 3.65901C17.7629 4.08097 18 4.65326 18 5.25V14H22V17.75C22 18.1768 21.9159 18.5994 21.7526 18.9937C21.5893 19.388 21.3499 19.7463 21.0481 20.0481C20.7463 20.3499 20.388 20.5893 19.9937 20.7526C19.5994 20.9159 19.1768 21 18.75 21H11.49C11.4969 20.9168 11.5002 20.8334 11.5 20.75V14.75C11.5 14.052 11.091 13.45 10.5 13.168V13C10.5 12.83 10.488 12.663 10.465 12.5H13.75C13.9489 12.5 14.1397 12.421 14.2803 12.2803C14.421 12.1397 14.5 11.9489 14.5 11.75C14.5 11.5511 14.421 11.3603 14.2803 11.2197C14.1397 11.079 13.9489 11 13.75 11H9.873C9.42686 10.3576 8.7782 9.88342 8.03076 9.65319C7.28332 9.42295 6.48026 9.45 5.75 9.73C5.19288 9.51667 4.59042 9.44954 4 9.535V5.25ZM18 19.5H18.75C19.2141 19.5 19.6592 19.3156 19.9874 18.9874C20.3156 18.6592 20.5 18.2141 20.5 17.75V15.5H18V19.5ZM7.5 7.75C7.5 8.164 7.836 8.5 8.25 8.5H13.75C13.9489 8.5 14.1397 8.42098 14.2803 8.28033C14.421 8.13968 14.5 7.94891 14.5 7.75C14.5 7.55109 14.421 7.36032 14.2803 7.21967C14.1397 7.07902 13.9489 7 13.75 7H8.25C8.05109 7 7.86032 7.07902 7.71967 7.21967C7.57902 7.36032 7.5 7.55109 7.5 7.75ZM1 14.75C1 14.5511 1.07902 14.3603 1.21967 14.2197C1.36032 14.079 1.55109 14 1.75 14H2V13C2.00001 12.5612 2.11553 12.1301 2.33496 11.75C2.55439 11.37 2.86998 11.0544 3.25003 10.835C3.63007 10.6156 4.06118 10.5001 4.50002 10.5001C4.93885 10.5001 5.36996 10.6156 5.75 10.835C6.13004 10.6156 6.56115 10.5001 6.99998 10.5001C7.43882 10.5001 7.86993 10.6156 8.24997 10.835C8.63002 11.0544 8.94561 11.37 9.16504 11.75C9.38447 12.1301 9.49999 12.5612 9.5 13V14H9.75C9.94891 14 10.1397 14.079 10.2803 14.2197C10.421 14.3603 10.5 14.5511 10.5 14.75V20.75C10.5 21.3467 10.2629 21.919 9.84099 22.341C9.41903 22.7629 8.84674 23 8.25 23H3.25C2.65326 23 2.08097 22.7629 1.65901 22.341C1.23705 21.919 1 21.3467 1 20.75V14.75ZM7 13V14H8V13C8.00003 12.8517 7.96707 12.7052 7.90352 12.5712C7.83996 12.4373 7.7474 12.3191 7.63253 12.2253C7.51767 12.1315 7.38338 12.0644 7.23938 12.0289C7.09539 11.9934 6.94531 11.9903 6.8 12.02C6.929 12.32 7 12.652 7 13ZM5.5 14V13C5.5 12.7348 5.39464 12.4804 5.20711 12.2929C5.01957 12.1054 4.76522 12 4.5 12C4.23478 12 3.98043 12.1054 3.79289 12.2929C3.60536 12.4804 3.5 12.7348 3.5 13V14H5.5Z" fill="black" fill-opacity="0.2"/>
<defs>
<linearGradient id="paint0_linear_3544_9934" x1="11.5133" y1="23" x2="21.5129" y2="13.0892" gradientUnits="userSpaceOnUse">
<stop stop-color="#CC204A"/>
<stop offset="1" stop-color="#FD4E25"/>
</linearGradient>
</defs>
</svg>
