<svg width="25" height="25" viewBox="0 0 25 25" fill="none" xmlns="http://www.w3.org/2000/svg">
<path d="M12.4336 8.52344L11.7498 11.2609C12.5236 11.4534 14.9111 12.2409 15.2973 10.6909C15.6998 9.07719 13.2061 8.71719 12.4336 8.52344ZM11.4061 12.6434L10.6523 15.6622C11.5811 15.8934 14.4486 16.8134 14.8723 15.1109C15.3161 13.3334 12.3361 12.8747 11.4061 12.6434Z" fill="url(#paint0_linear_3544_9928)"/>
<path d="M12.4336 8.52344L11.7498 11.2609C12.5236 11.4534 14.9111 12.2409 15.2973 10.6909C15.6998 9.07719 13.2061 8.71719 12.4336 8.52344ZM11.4061 12.6434L10.6523 15.6622C11.5811 15.8934 14.4486 16.8134 14.8723 15.1109C15.3161 13.3334 12.3361 12.8747 11.4061 12.6434Z" fill="black" fill-opacity="0.2"/>
<path d="M15.5181 0.373809C8.82181 -1.29494 2.04306 2.78006 0.374313 9.47631C-1.29569 16.1701 2.77931 22.9513 9.47056 24.6213C16.1668 26.2901 22.9493 22.2163 24.6168 15.5201C26.2868 8.82506 22.2118 2.04381 15.5181 0.373809ZM18.0068 10.7176C17.8256 11.9351 17.1493 12.5238 16.2543 12.7313C17.4856 13.3713 18.1106 14.3538 17.5156 16.0576C16.7756 18.1713 15.0181 18.3501 12.6781 17.9076L12.1106 20.1826L10.7406 19.8413L11.2993 17.5988C10.9338 17.5075 10.5692 17.4125 10.2056 17.3138L9.64431 19.5688L8.27556 19.2251L8.84306 16.9463C8.52181 16.8638 8.19681 16.7763 7.86556 16.6938L6.07931 16.2501L6.76181 14.6801C6.76181 14.6801 7.77181 14.9488 7.75806 14.9288C8.14681 15.0251 8.31806 14.7726 8.38556 14.6026L9.28431 11.0088L9.42806 11.0451C9.38169 11.0264 9.33408 11.0109 9.28556 10.9988L9.92556 8.43256C9.94181 8.14006 9.84306 7.77256 9.28681 7.63381C9.30931 7.62006 8.29056 7.38631 8.29056 7.38631L8.65431 5.92131L10.5468 6.39381L10.5456 6.40006C10.8293 6.47131 11.1218 6.53881 11.4206 6.60631L11.9818 4.35381L13.3531 4.69506L12.8031 6.90256C13.1706 6.98631 13.5418 7.07131 13.9018 7.16131L14.4493 4.96756L15.8206 5.30881L15.2593 7.56131C16.9893 8.16006 18.2543 9.05506 18.0068 10.7176Z" fill="url(#paint1_linear_3544_9928)"/>
<path d="M15.5181 0.373809C8.82181 -1.29494 2.04306 2.78006 0.374313 9.47631C-1.29569 16.1701 2.77931 22.9513 9.47056 24.6213C16.1668 26.2901 22.9493 22.2163 24.6168 15.5201C26.2868 8.82506 22.2118 2.04381 15.5181 0.373809ZM18.0068 10.7176C17.8256 11.9351 17.1493 12.5238 16.2543 12.7313C17.4856 13.3713 18.1106 14.3538 17.5156 16.0576C16.7756 18.1713 15.0181 18.3501 12.6781 17.9076L12.1106 20.1826L10.7406 19.8413L11.2993 17.5988C10.9338 17.5075 10.5692 17.4125 10.2056 17.3138L9.64431 19.5688L8.27556 19.2251L8.84306 16.9463C8.52181 16.8638 8.19681 16.7763 7.86556 16.6938L6.07931 16.2501L6.76181 14.6801C6.76181 14.6801 7.77181 14.9488 7.75806 14.9288C8.14681 15.0251 8.31806 14.7726 8.38556 14.6026L9.28431 11.0088L9.42806 11.0451C9.38169 11.0264 9.33408 11.0109 9.28556 10.9988L9.92556 8.43256C9.94181 8.14006 9.84306 7.77256 9.28681 7.63381C9.30931 7.62006 8.29056 7.38631 8.29056 7.38631L8.65431 5.92131L10.5468 6.39381L10.5456 6.40006C10.8293 6.47131 11.1218 6.53881 11.4206 6.60631L11.9818 4.35381L13.3531 4.69506L12.8031 6.90256C13.1706 6.98631 13.5418 7.07131 13.9018 7.16131L14.4493 4.96756L15.8206 5.30881L15.2593 7.56131C16.9893 8.16006 18.2543 9.05506 18.0068 10.7176Z" fill="black" fill-opacity="0.2"/>
<defs>
<linearGradient id="paint0_linear_3544_9928" x1="12.9996" y1="16.118" x2="16.3034" y2="14.1927" gradientUnits="userSpaceOnUse">
<stop stop-color="#CC204A"/>
<stop offset="1" stop-color="#FD4E25"/>
</linearGradient>
<linearGradient id="paint1_linear_3544_9928" x1="12.5114" y1="24.9952" x2="24.9881" y2="13.2201" gradientUnits="userSpaceOnUse">
<stop stop-color="#CC204A"/>
<stop offset="1" stop-color="#FD4E25"/>
</linearGradient>
</defs>
</svg>
