<svg width="30" height="30" viewBox="0 0 30 30" fill="none" xmlns="http://www.w3.org/2000/svg">
<path d="M12.5 5H17.5C22.214 5 24.5711 5 26.0355 6.46447C27.09 7.51889 27.3852 9.03603 27.4679 11.5625H2.53215C2.61481 9.03603 2.91004 7.51889 3.96447 6.46447C5.42893 5 7.78595 5 12.5 5Z" fill="white"/>
<path fill-rule="evenodd" clip-rule="evenodd" d="M27.4994 16.0219L26.9887 15.5113C25.8904 14.4129 24.1096 14.4129 23.0113 15.5113L22.0095 16.5131C21.6098 15.4466 20.581 14.6875 19.375 14.6875C17.8217 14.6875 16.5625 15.9467 16.5625 17.5V19.7048C15.9501 19.7729 15.3558 20.0417 14.8863 20.5113C13.7879 21.6096 13.7879 23.3904 14.8863 24.4887L15.3975 25H12.5C7.78595 25 5.42893 25 3.96447 23.5355C2.5 22.0711 2.5 19.714 2.5 15C2.5 14.4476 2.5 13.9275 2.50236 13.4375H27.4976C27.5 13.9275 27.5 14.4476 27.5 15C27.5 15.3537 27.5 15.6941 27.4994 16.0219ZM7.5 19.0625C6.98223 19.0625 6.5625 19.4822 6.5625 20C6.5625 20.5178 6.98223 20.9375 7.5 20.9375H12.5C13.0178 20.9375 13.4375 20.5178 13.4375 20C13.4375 19.4822 13.0178 19.0625 12.5 19.0625H7.5Z" fill="white"/>
<path fill-rule="evenodd" clip-rule="evenodd" d="M19.375 16.5625C19.8928 16.5625 20.3125 16.9822 20.3125 17.5V22.7367L21.2121 21.8371C21.5782 21.471 22.1718 21.471 22.5379 21.8371C22.904 22.2032 22.904 22.7968 22.5379 23.1629L20.0379 25.6629C19.6718 26.029 19.0782 26.029 18.7121 25.6629L16.2121 23.1629C15.846 22.7968 15.846 22.2032 16.2121 21.8371C16.5782 21.471 17.1718 21.471 17.5379 21.8371L18.4375 22.7367V17.5C18.4375 16.9822 18.8572 16.5625 19.375 16.5625ZM24.3371 16.8371C24.7032 16.471 25.2968 16.471 25.6629 16.8371L28.1629 19.3371C28.529 19.7032 28.529 20.2968 28.1629 20.6629C27.7968 21.029 27.2032 21.029 26.8371 20.6629L25.9375 19.7633V25C25.9375 25.5178 25.5178 25.9375 25 25.9375C24.4822 25.9375 24.0625 25.5178 24.0625 25V19.7633L23.1629 20.6629C22.7968 21.029 22.2032 21.029 21.8371 20.6629C21.471 20.2968 21.471 19.7032 21.8371 19.3371L24.3371 16.8371Z" fill="white"/>
</svg>
