<svg width="27" height="26" viewBox="0 0 27 26" fill="none" xmlns="http://www.w3.org/2000/svg">
<path d="M19.098 0H7.77849C6.27496 0 5.5232 0 4.91907 0.373373C4.31494 0.746746 3.97874 1.41914 3.30635 2.76393L1.55183 7.19911C1.14647 8.22381 0.791798 9.43156 1.47415 10.2968C1.93192 10.8773 2.64153 11.25 3.43821 11.25C4.81892 11.25 5.93821 10.1307 5.93821 8.75C5.93821 10.1307 7.0575 11.25 8.43821 11.25C9.81892 11.25 10.9382 10.1307 10.9382 8.75C10.9382 10.1307 12.0575 11.25 13.4382 11.25C14.8189 11.25 15.9382 10.1307 15.9382 8.75C15.9382 10.1307 17.0575 11.25 18.4382 11.25C19.8189 11.25 20.9382 10.1307 20.9382 8.75C20.9382 10.1307 22.0575 11.25 23.4382 11.25C24.2349 11.25 24.9445 10.8773 25.4023 10.2968C26.0847 9.43156 25.73 8.22381 25.3247 7.19911L23.5702 2.76393C22.8978 1.41914 22.5616 0.746746 21.9574 0.373373C21.3533 0 20.6016 0 19.098 0Z" fill="url(#paint0_linear_3544_9922)"/>
<path d="M19.098 0H7.77849C6.27496 0 5.5232 0 4.91907 0.373373C4.31494 0.746746 3.97874 1.41914 3.30635 2.76393L1.55183 7.19911C1.14647 8.22381 0.791798 9.43156 1.47415 10.2968C1.93192 10.8773 2.64153 11.25 3.43821 11.25C4.81892 11.25 5.93821 10.1307 5.93821 8.75C5.93821 10.1307 7.0575 11.25 8.43821 11.25C9.81892 11.25 10.9382 10.1307 10.9382 8.75C10.9382 10.1307 12.0575 11.25 13.4382 11.25C14.8189 11.25 15.9382 10.1307 15.9382 8.75C15.9382 10.1307 17.0575 11.25 18.4382 11.25C19.8189 11.25 20.9382 10.1307 20.9382 8.75C20.9382 10.1307 22.0575 11.25 23.4382 11.25C24.2349 11.25 24.9445 10.8773 25.4023 10.2968C26.0847 9.43156 25.73 8.22381 25.3247 7.19911L23.5702 2.76393C22.8978 1.41914 22.5616 0.746746 21.9574 0.373373C21.3533 0 20.6016 0 19.098 0Z" fill="black" fill-opacity="0.2"/>
<path fill-rule="evenodd" clip-rule="evenodd" d="M23.4375 24.0635H25.9375C26.4553 24.0635 26.875 24.4832 26.875 25.001C26.875 25.5187 26.4553 25.9385 25.9375 25.9385H0.9375C0.419733 25.9385 0 25.5187 0 25.001C0 24.4832 0.419733 24.0635 0.9375 24.0635H3.4375L3.4375 13.126C4.36703 13.126 5.22886 12.8361 5.9375 12.3418C6.64615 12.8361 7.50797 13.126 8.4375 13.126C9.36703 13.126 10.2289 12.8361 10.9375 12.3418C11.6461 12.8361 12.508 13.126 13.4375 13.126C14.367 13.126 15.2289 12.8361 15.9375 12.3418C16.6461 12.8361 17.508 13.126 18.4375 13.126C19.367 13.126 20.2289 12.8361 20.9375 12.3418C21.6461 12.8361 22.508 13.126 23.4375 13.126L23.4375 24.0635ZM10.3125 24.0635H16.5625V20.626C16.5625 19.4577 16.5625 18.8736 16.3113 18.4385C16.1467 18.1534 15.91 17.9167 15.625 17.7522C15.1899 17.501 14.6058 17.501 13.4375 17.501C12.2692 17.501 11.6851 17.501 11.25 17.7522C10.965 17.9167 10.7283 18.1534 10.5637 18.4385C10.3125 18.8736 10.3125 19.4577 10.3125 20.626V24.0635Z" fill="url(#paint1_linear_3544_9922)"/>
<path fill-rule="evenodd" clip-rule="evenodd" d="M23.4375 24.0635H25.9375C26.4553 24.0635 26.875 24.4832 26.875 25.001C26.875 25.5187 26.4553 25.9385 25.9375 25.9385H0.9375C0.419733 25.9385 0 25.5187 0 25.001C0 24.4832 0.419733 24.0635 0.9375 24.0635H3.4375L3.4375 13.126C4.36703 13.126 5.22886 12.8361 5.9375 12.3418C6.64615 12.8361 7.50797 13.126 8.4375 13.126C9.36703 13.126 10.2289 12.8361 10.9375 12.3418C11.6461 12.8361 12.508 13.126 13.4375 13.126C14.367 13.126 15.2289 12.8361 15.9375 12.3418C16.6461 12.8361 17.508 13.126 18.4375 13.126C19.367 13.126 20.2289 12.8361 20.9375 12.3418C21.6461 12.8361 22.508 13.126 23.4375 13.126L23.4375 24.0635ZM10.3125 24.0635H16.5625V20.626C16.5625 19.4577 16.5625 18.8736 16.3113 18.4385C16.1467 18.1534 15.91 17.9167 15.625 17.7522C15.1899 17.501 14.6058 17.501 13.4375 17.501C12.2692 17.501 11.6851 17.501 11.25 17.7522C10.965 17.9167 10.7283 18.1534 10.5637 18.4385C10.3125 18.8736 10.3125 19.4577 10.3125 20.626V24.0635Z" fill="black" fill-opacity="0.2"/>
<defs>
<linearGradient id="paint0_linear_3544_9922" x1="13.4539" y1="11.25" x2="17.8575" y2="2.1251" gradientUnits="userSpaceOnUse">
<stop stop-color="#CC204A"/>
<stop offset="1" stop-color="#FD4E25"/>
</linearGradient>
<linearGradient id="paint1_linear_3544_9922" x1="13.4546" y1="25.9385" x2="19.1158" y2="15.3761" gradientUnits="userSpaceOnUse">
<stop stop-color="#CC204A"/>
<stop offset="1" stop-color="#FD4E25"/>
</linearGradient>
</defs>
</svg>
