<svg width="27" height="24" viewBox="0 0 27 24" fill="none" xmlns="http://www.w3.org/2000/svg">
<path d="M11.334 24C12.4386 24 13.334 23.1046 13.334 22C13.334 20.8954 12.4386 20 11.334 20C10.2294 20 9.33398 20.8954 9.33398 22C9.33398 23.1046 10.2294 24 11.334 24Z" fill="url(#paint0_linear_3544_9912)"/>
<path d="M11.334 24C12.4386 24 13.334 23.1046 13.334 22C13.334 20.8954 12.4386 20 11.334 20C10.2294 20 9.33398 20.8954 9.33398 22C9.33398 23.1046 10.2294 24 11.334 24Z" fill="black" fill-opacity="0.2"/>
<path d="M20.666 24C21.7706 24 22.666 23.1046 22.666 22C22.666 20.8954 21.7706 20 20.666 20C19.5614 20 18.666 20.8954 18.666 22C18.666 23.1046 19.5614 24 20.666 24Z" fill="url(#paint1_linear_3544_9912)"/>
<path d="M20.666 24C21.7706 24 22.666 23.1046 22.666 22C22.666 20.8954 21.7706 20 20.666 20C19.5614 20 18.666 20.8954 18.666 22C18.666 23.1046 19.5614 24 20.666 24Z" fill="black" fill-opacity="0.2"/>
<path d="M25.3333 5.33334H7.112L5.57333 1.64001C5.37135 1.15353 5.02948 0.737973 4.59106 0.446009C4.15264 0.154044 3.63741 -0.00118126 3.11067 6.76878e-06H0V2.66667H3.112L9.436 17.8467C9.64267 18.3427 10.1293 18.6667 10.6667 18.6667H21.3333C21.8893 18.6667 22.3867 18.3213 22.5827 17.8027L26.5827 7.13601C26.6576 6.93413 26.6827 6.71715 26.6558 6.50351C26.6288 6.28986 26.5507 6.08588 26.4281 5.90889C26.3054 5.73191 26.1418 5.58716 25.9512 5.48696C25.7606 5.38675 25.5487 5.33405 25.3333 5.33334ZM16 16L12 12H14.6667V8.00001H17.3333V12H20L16 16Z" fill="url(#paint2_linear_3544_9912)"/>
<path d="M25.3333 5.33334H7.112L5.57333 1.64001C5.37135 1.15353 5.02948 0.737973 4.59106 0.446009C4.15264 0.154044 3.63741 -0.00118126 3.11067 6.76878e-06H0V2.66667H3.112L9.436 17.8467C9.64267 18.3427 10.1293 18.6667 10.6667 18.6667H21.3333C21.8893 18.6667 22.3867 18.3213 22.5827 17.8027L26.5827 7.13601C26.6576 6.93413 26.6827 6.71715 26.6558 6.50351C26.6288 6.28986 26.5507 6.08588 26.4281 5.90889C26.3054 5.73191 26.1418 5.58716 25.9512 5.48696C25.7606 5.38675 25.5487 5.33405 25.3333 5.33334ZM16 16L12 12H14.6667V8.00001H17.3333V12H20L16 16Z" fill="black" fill-opacity="0.2"/>
<defs>
<linearGradient id="paint0_linear_3544_9912" x1="11.3365" y1="24" x2="13.3332" y2="22.1153" gradientUnits="userSpaceOnUse">
<stop stop-color="#CC204A"/>
<stop offset="1" stop-color="#FD4E25"/>
</linearGradient>
<linearGradient id="paint1_linear_3544_9912" x1="20.6686" y1="24" x2="22.6652" y2="22.1153" gradientUnits="userSpaceOnUse">
<stop stop-color="#CC204A"/>
<stop offset="1" stop-color="#FD4E25"/>
</linearGradient>
<linearGradient id="paint2_linear_3544_9912" x1="13.3501" y1="18.6667" x2="22.2813" y2="6.62342" gradientUnits="userSpaceOnUse">
<stop stop-color="#CC204A"/>
<stop offset="1" stop-color="#FD4E25"/>
</linearGradient>
</defs>
</svg>
