<svg width="25" height="25" viewBox="0 0 25 25" fill="none" xmlns="http://www.w3.org/2000/svg">
<g clip-path="url(#clip0_3544_9754)">
<path d="M4.56641 4.51562H10.5664V10.5156H4.56641V4.51562ZM20.5664 4.51562V10.5156H14.5664V4.51562H20.5664ZM14.5664 15.5156H16.5664V13.5156H14.5664V11.5156H16.5664V13.5156H18.5664V11.5156H20.5664V13.5156H18.5664V15.5156H20.5664V18.5156H18.5664V20.5156H16.5664V18.5156H13.5664V20.5156H11.5664V16.5156H14.5664V15.5156ZM16.5664 15.5156V18.5156H18.5664V15.5156H16.5664ZM4.56641 20.5156V14.5156H10.5664V20.5156H4.56641ZM6.56641 6.51562V8.51562H8.56641V6.51562H6.56641ZM16.5664 6.51562V8.51562H18.5664V6.51562H16.5664ZM6.56641 16.5156V18.5156H8.56641V16.5156H6.56641ZM4.56641 11.5156H6.56641V13.5156H4.56641V11.5156ZM9.56641 11.5156H13.5664V15.5156H11.5664V13.5156H9.56641V11.5156ZM11.5664 6.51562H13.5664V10.5156H11.5664V6.51562ZM2.56641 2.51562V6.51562H0.566406V2.51562C0.566406 1.98519 0.77712 1.47648 1.15219 1.10141C1.52727 0.726339 2.03597 0.515625 2.56641 0.515625L6.56641 0.515625V2.51562H2.56641ZM22.5664 0.515625C23.0968 0.515625 23.6055 0.726339 23.9806 1.10141C24.3557 1.47648 24.5664 1.98519 24.5664 2.51562V6.51562H22.5664V2.51562H18.5664V0.515625H22.5664ZM2.56641 18.5156V22.5156H6.56641V24.5156H2.56641C2.03597 24.5156 1.52727 24.3049 1.15219 23.9298C0.77712 23.5548 0.566406 23.0461 0.566406 22.5156V18.5156H2.56641ZM22.5664 22.5156V18.5156H24.5664V22.5156C24.5664 23.0461 24.3557 23.5548 23.9806 23.9298C23.6055 24.3049 23.0968 24.5156 22.5664 24.5156H18.5664V22.5156H22.5664Z" fill="white"/>
</g>
<defs>
<clipPath id="clip0_3544_9754">
<rect width="24" height="24" fill="white" transform="translate(0.566406 0.515625)"/>
</clipPath>
</defs>
</svg>
