<svg width="28" height="28" viewBox="0 0 28 28" fill="none" xmlns="http://www.w3.org/2000/svg">
<path d="M18.6382 0H9.32181C7.67769 0.00186435 6.34538 1.33417 6.34375 2.97829V25.0219C6.34538 26.666 7.67769 27.9983 9.32181 27.9999H18.6382C20.2823 27.9983 21.6146 26.666 21.6165 25.0219V2.97829C21.6146 1.33417 20.2823 0.00186435 18.6382 0V0ZM13.9801 25.4546C13.277 25.4546 12.7072 24.8848 12.7072 24.1817C12.7072 23.4789 13.277 22.9091 13.9801 22.9091C14.683 22.9091 15.2528 23.4789 15.2528 24.1817C15.2528 24.8848 14.683 25.4546 13.9801 25.4546ZM15.8892 3.81818H12.071C11.7196 3.81818 11.4346 3.53317 11.4346 3.18174C11.4346 2.83031 11.7196 2.54553 12.071 2.54553H15.8892C16.2406 2.54553 16.5254 2.83031 16.5254 3.18174C16.5254 3.53317 16.2406 3.81818 15.8892 3.81818Z" fill="url(#paint0_linear_3544_9883)"/>
<defs>
<linearGradient id="paint0_linear_3544_9883" x1="13.9898" y1="27.9999" x2="25.3853" y2="22.1328" gradientUnits="userSpaceOnUse">
<stop stop-color="#CC204A"/>
<stop offset="1" stop-color="#FD4E25"/>
</linearGradient>
</defs>
</svg>
