<svg width="27" height="26" viewBox="0 0 27 26" fill="none" xmlns="http://www.w3.org/2000/svg">
<path fill-rule="evenodd" clip-rule="evenodd" d="M17.1875 0H19.6875C22.0445 0 23.223 0 23.9553 0.732233C24.6875 1.46447 24.6875 2.64298 24.6875 5V24.0625H25.9375C26.4553 24.0625 26.875 24.4822 26.875 25C26.875 25.5178 26.4553 25.9375 25.9375 25.9375H0.9375C0.419733 25.9375 0 25.5178 0 25C0 24.4822 0.419733 24.0625 0.9375 24.0625H2.1875V8.75C2.1875 6.39298 2.1875 5.21447 2.91973 4.48223C3.65197 3.75 4.83048 3.75 7.1875 3.75H12.1875C14.5445 3.75 15.723 3.75 16.4553 4.48223C17.1875 5.21447 17.1875 6.39298 17.1875 8.75V24.0625H19.0625V8.75L19.0625 8.63814C19.0626 7.5561 19.0628 6.56401 18.9543 5.75698C18.8348 4.86828 18.5537 3.92897 17.7811 3.15641C17.0085 2.38385 16.0692 2.10273 15.1805 1.98325C14.3849 1.87627 13.4093 1.87488 12.345 1.87499C12.4504 1.39093 12.6262 1.02573 12.9197 0.732233C13.652 0 14.8305 0 17.1875 0ZM5 7.5C5 6.98223 5.41973 6.5625 5.9375 6.5625H13.4375C13.9553 6.5625 14.375 6.98223 14.375 7.5C14.375 8.01777 13.9553 8.4375 13.4375 8.4375H5.9375C5.41973 8.4375 5 8.01777 5 7.5ZM5 11.25C5 10.7322 5.41973 10.3125 5.9375 10.3125H13.4375C13.9553 10.3125 14.375 10.7322 14.375 11.25C14.375 11.7678 13.9553 12.1875 13.4375 12.1875H5.9375C5.41973 12.1875 5 11.7678 5 11.25ZM5 15C5 14.4822 5.41973 14.0625 5.9375 14.0625H13.4375C13.9553 14.0625 14.375 14.4822 14.375 15C14.375 15.5178 13.9553 15.9375 13.4375 15.9375H5.9375C5.41973 15.9375 5 15.5178 5 15ZM9.6875 20.3125C10.2053 20.3125 10.625 20.7322 10.625 21.25V24.0625H8.75V21.25C8.75 20.7322 9.16973 20.3125 9.6875 20.3125Z" fill="url(#paint0_linear_3544_9889)"/>
<path fill-rule="evenodd" clip-rule="evenodd" d="M17.1875 0H19.6875C22.0445 0 23.223 0 23.9553 0.732233C24.6875 1.46447 24.6875 2.64298 24.6875 5V24.0625H25.9375C26.4553 24.0625 26.875 24.4822 26.875 25C26.875 25.5178 26.4553 25.9375 25.9375 25.9375H0.9375C0.419733 25.9375 0 25.5178 0 25C0 24.4822 0.419733 24.0625 0.9375 24.0625H2.1875V8.75C2.1875 6.39298 2.1875 5.21447 2.91973 4.48223C3.65197 3.75 4.83048 3.75 7.1875 3.75H12.1875C14.5445 3.75 15.723 3.75 16.4553 4.48223C17.1875 5.21447 17.1875 6.39298 17.1875 8.75V24.0625H19.0625V8.75L19.0625 8.63814C19.0626 7.5561 19.0628 6.56401 18.9543 5.75698C18.8348 4.86828 18.5537 3.92897 17.7811 3.15641C17.0085 2.38385 16.0692 2.10273 15.1805 1.98325C14.3849 1.87627 13.4093 1.87488 12.345 1.87499C12.4504 1.39093 12.6262 1.02573 12.9197 0.732233C13.652 0 14.8305 0 17.1875 0ZM5 7.5C5 6.98223 5.41973 6.5625 5.9375 6.5625H13.4375C13.9553 6.5625 14.375 6.98223 14.375 7.5C14.375 8.01777 13.9553 8.4375 13.4375 8.4375H5.9375C5.41973 8.4375 5 8.01777 5 7.5ZM5 11.25C5 10.7322 5.41973 10.3125 5.9375 10.3125H13.4375C13.9553 10.3125 14.375 10.7322 14.375 11.25C14.375 11.7678 13.9553 12.1875 13.4375 12.1875H5.9375C5.41973 12.1875 5 11.7678 5 11.25ZM5 15C5 14.4822 5.41973 14.0625 5.9375 14.0625H13.4375C13.9553 14.0625 14.375 14.4822 14.375 15C14.375 15.5178 13.9553 15.9375 13.4375 15.9375H5.9375C5.41973 15.9375 5 15.5178 5 15ZM9.6875 20.3125C10.2053 20.3125 10.625 20.7322 10.625 21.25V24.0625H8.75V21.25C8.75 20.7322 9.16973 20.3125 9.6875 20.3125Z" fill="black" fill-opacity="0.2"/>
<defs>
<linearGradient id="paint0_linear_3544_9889" x1="13.4546" y1="25.9375" x2="26.4201" y2="13.2567" gradientUnits="userSpaceOnUse">
<stop stop-color="#CC204A"/>
<stop offset="1" stop-color="#FD4E25"/>
</linearGradient>
</defs>
</svg>
