<svg width="30" height="30" viewBox="0 0 30 30" fill="none" xmlns="http://www.w3.org/2000/svg">
<path d="M8.31761 8.30273C9.18547 7.4351 10.1962 6.75358 11.3223 6.27718C12.4891 5.78385 13.7274 5.53363 15.003 5.53363C16.2786 5.53363 17.5168 5.78385 18.6837 6.27718C19.8098 6.75358 20.8207 7.4351 21.6883 8.30273C22.0633 8.67771 22.4035 9.07971 22.7073 9.50597V8.49205C22.7073 5.24083 20.0623 2.59581 16.811 2.59581H9.49682V0L0 5.98393L6.80646 10.2727C7.21922 9.55519 7.72492 8.89542 8.31761 8.30273Z" fill="url(#paint0_linear_3544_9876)"/>
<path d="M30.0061 23.9918L23.1997 19.7031C22.7869 20.4206 22.2812 21.0801 21.6885 21.673C20.8206 22.5407 19.8099 23.2222 18.6838 23.6984C17.517 24.1919 16.2787 24.4421 15.0031 24.4421C13.7276 24.4421 12.4893 24.1919 11.3225 23.6984C10.1964 23.2222 9.18542 22.5407 8.31778 21.673C7.9428 21.2981 7.60261 20.8961 7.29883 20.4698V21.4837C7.29883 24.7349 9.94385 27.38 13.1951 27.38H20.5095V29.9758L30.0061 23.9918Z" fill="url(#paint1_linear_3544_9876)"/>
<path d="M7.30859 14.9877C7.30859 19.2372 10.7535 22.6824 15.0031 22.6824C19.2529 22.6824 22.6978 19.2372 22.6978 14.9877C22.6978 10.7381 19.2529 7.29297 15.0031 7.29297C10.7535 7.29297 7.30859 10.7381 7.30859 14.9877ZM12.0735 13.737C12.0735 12.6499 12.8624 11.7358 14.4404 11.5146V10.4659H15.7968V11.4954C16.5087 11.5627 17.2015 11.7454 17.7497 12.0533L17.0666 13.6984C16.403 13.3616 15.7775 13.1981 15.1906 13.1981C14.5269 13.1981 14.3151 13.3904 14.3151 13.6214C14.3151 14.4295 18.0384 13.756 18.0384 16.2383C18.0384 17.2774 17.288 18.1817 15.7968 18.4415V19.5094H14.4404V18.4896C13.4782 18.4319 12.5451 18.172 11.9677 17.8161L12.6989 16.1614C13.334 16.5366 14.1805 16.7772 14.9213 16.7772C15.5658 16.7772 15.7968 16.6424 15.7968 16.4116C15.7968 15.5648 12.0735 16.2479 12.0735 13.737Z" fill="url(#paint2_linear_3544_9876)"/>
<defs>
<linearGradient id="paint0_linear_3544_9876" x1="11.3681" y1="10.2727" x2="15.3718" y2="1.91887" gradientUnits="userSpaceOnUse">
<stop stop-color="#CC204A"/>
<stop offset="1" stop-color="#FD4E25"/>
</linearGradient>
<linearGradient id="paint1_linear_3544_9876" x1="18.6669" y1="29.9758" x2="22.6706" y2="21.622" gradientUnits="userSpaceOnUse">
<stop stop-color="#CC204A"/>
<stop offset="1" stop-color="#FD4E25"/>
</linearGradient>
<linearGradient id="paint2_linear_3544_9876" x1="15.013" y1="22.6824" x2="22.6949" y2="15.4314" gradientUnits="userSpaceOnUse">
<stop stop-color="#CC204A"/>
<stop offset="1" stop-color="#FD4E25"/>
</linearGradient>
</defs>
</svg>
