<svg width="30" height="30" viewBox="0 0 30 30" fill="none" xmlns="http://www.w3.org/2000/svg">
<g clip-path="url(#clip0_3544_9896)">
<path d="M30 19.5469L29.5781 18.375C29.25 18.5156 28.875 18.3281 28.7813 18C28.6406 17.6719 28.8281 17.2969 29.1562 17.2031L28.6875 15.9375C28.3594 16.0781 27.9844 15.8906 27.8906 15.5625C27.75 15.2344 27.9375 14.8594 28.2656 14.7656L27.8438 13.5938C27.5156 13.7344 27.1406 13.5469 27.0469 13.2188C26.9062 12.8906 27.0938 12.5156 27.4219 12.4219L27 11.25C26.6719 11.3438 26.3438 11.2031 26.2031 10.9219C24.9375 11.0625 23.6719 10.3594 23.25 9.09375L5.71875 15.375C6.23437 16.8281 5.48438 18.4219 4.03125 18.9844L7.45312 28.3125C8.90625 27.7969 10.5 28.5469 11.0625 30L28.5469 23.625C28.0781 22.3594 28.5937 21 29.6719 20.2969C29.5312 20.0156 29.6719 19.6406 30 19.5469Z" fill="url(#paint0_linear_3544_9896)"/>
<path d="M30 19.5469L29.5781 18.375C29.25 18.5156 28.875 18.3281 28.7813 18C28.6406 17.6719 28.8281 17.2969 29.1562 17.2031L28.6875 15.9375C28.3594 16.0781 27.9844 15.8906 27.8906 15.5625C27.75 15.2344 27.9375 14.8594 28.2656 14.7656L27.8438 13.5938C27.5156 13.7344 27.1406 13.5469 27.0469 13.2188C26.9062 12.8906 27.0938 12.5156 27.4219 12.4219L27 11.25C26.6719 11.3438 26.3438 11.2031 26.2031 10.9219C24.9375 11.0625 23.6719 10.3594 23.25 9.09375L5.71875 15.375C6.23437 16.8281 5.48438 18.4219 4.03125 18.9844L7.45312 28.3125C8.90625 27.7969 10.5 28.5469 11.0625 30L28.5469 23.625C28.0781 22.3594 28.5937 21 29.6719 20.2969C29.5312 20.0156 29.6719 19.6406 30 19.5469Z" fill="black" fill-opacity="0.2"/>
<path d="M26.5306 21.8899L11.4368 27.3743C10.6399 27.6556 9.74931 27.2337 9.42119 26.4368L6.74931 19.0774C6.46806 18.2806 6.88994 17.3899 7.68681 17.0618L22.7806 11.5774C23.5774 11.2962 24.4681 11.7181 24.7962 12.5149L27.4681 19.8743C27.7493 20.7181 27.3274 21.6087 26.5306 21.8899ZM7.96806 17.8587C7.54619 17.9993 7.35869 18.4681 7.49931 18.8431L10.1712 26.2024C10.3118 26.6243 10.7806 26.8118 11.1556 26.6712L26.2493 21.1868C26.6712 21.0462 26.8587 20.5774 26.7181 20.2024L24.0462 12.8431C23.9056 12.4212 23.4368 12.2337 23.0618 12.3743L7.96806 17.8587Z" fill="white"/>
<path d="M14.4844 20.2031L14.0625 20.3438C14.0156 20.3438 13.9687 20.3437 13.9687 20.2969L13.7344 19.8281L13.4531 19.9219L13.5937 20.4375C13.5937 20.4844 13.5937 20.5312 13.5469 20.5312L13.125 20.6719C13.0781 20.6719 13.0781 20.6719 13.0312 20.625L12.2344 17.3906C12.2344 17.3437 12.2344 17.2969 12.2813 17.2969L12.8906 17.0625C12.9375 17.0625 12.9844 17.0625 12.9844 17.1094L14.4844 20.1094C14.5312 20.1563 14.5312 20.2031 14.4844 20.2031ZM13.5 19.3125L12.9375 18.0937H12.8906L13.2656 19.3594L13.5 19.3125ZM15.375 17.3906L15.9375 18.9844C16.0312 19.3125 15.8906 19.6406 15.5625 19.7812L14.8594 20.0156C14.8125 20.0156 14.7656 20.0156 14.7656 19.9687L13.8281 17.3437C13.8281 17.2969 13.8281 17.25 13.875 17.25L14.5781 17.0156C14.9062 16.9219 15.2812 17.0625 15.375 17.3906ZM14.8594 17.625C14.8594 17.5781 14.7656 17.5313 14.7187 17.5313L14.5312 17.5781L15.1875 19.3594L15.3281 19.3125C15.375 19.3125 15.4219 19.2188 15.375 19.1719L14.8594 17.625ZM17.3438 16.0781L18.3281 18.7031C18.3281 18.75 18.3281 18.7969 18.2812 18.7969L17.8594 18.9375C17.8125 18.9375 17.7656 18.9375 17.7656 18.8906L17.2969 17.6719L17.3906 18.8906C17.3906 18.9375 17.3438 18.9375 17.3438 18.8906L16.6406 17.9062L17.1094 19.125C17.1094 19.1719 17.1094 19.2187 17.0625 19.2187L16.6406 19.3594C16.5938 19.3594 16.5469 19.3594 16.5469 19.3125L15.5625 16.6875C15.5625 16.6406 15.5625 16.5938 15.6094 16.5938L15.9844 16.4531C16.0312 16.4531 16.0781 16.4531 16.0781 16.5L16.9688 17.8125L16.8281 16.2656C16.8281 16.2188 16.8281 16.1719 16.875 16.1719L17.25 16.0312C17.2969 16.0312 17.3438 16.0312 17.3438 16.0781ZM19.2656 18.375C19.2656 18.4219 19.2656 18.4688 19.2188 18.4688L18.7969 18.6094C18.75 18.6094 18.7031 18.6094 18.7031 18.5625L17.7656 15.9375C17.7656 15.8906 17.7656 15.8437 17.8125 15.8437L18.2344 15.7031C18.2813 15.7031 18.3281 15.7031 18.3281 15.75L19.2656 18.375ZM19.9687 15.1406L20.1094 15.5625C20.1094 15.6094 20.1094 15.6563 20.0625 15.6563L19.7344 15.7969L20.5312 17.9531C20.5312 18 20.5312 18.0469 20.4844 18.0469L20.0625 18.1875C20.0156 18.1875 19.9687 18.1875 19.9687 18.1406L19.2188 15.9375L18.8906 16.0781C18.8437 16.0781 18.7969 16.0781 18.7969 16.0312L18.6562 15.6094C18.6562 15.5625 18.6563 15.5156 18.7031 15.5156L19.875 15.0938C19.9219 15.0938 19.9687 15.0937 19.9687 15.1406ZM16.7344 23.5781L16.5469 23.625C16.2187 23.7188 15.8906 23.5781 15.75 23.25L15 21.0937C14.9062 20.7656 15.0469 20.4375 15.375 20.2969L15.5625 20.25C15.8906 20.1562 16.2188 20.2969 16.3594 20.625L17.1562 22.7812C17.25 23.0625 17.0625 23.4375 16.7344 23.5781ZM15.6563 20.7656C15.5625 20.8125 15.5156 20.8594 15.5625 20.9531L16.3125 23.0625C16.3125 23.1094 16.4062 23.1562 16.4531 23.1094H16.5C16.5469 23.1094 16.5938 23.0156 16.5938 22.9687L15.8437 20.8594C15.7969 20.7656 15.7031 20.7656 15.6563 20.7656ZM18.1875 19.9219L19.1719 22.5469C19.1719 22.5937 19.1719 22.6406 19.125 22.6406L18.8438 22.7344C18.7969 22.7344 18.75 22.7344 18.75 22.6875L17.8125 21.6562L18.2344 22.875C18.2344 22.9219 18.2344 22.9687 18.1875 22.9687L17.7656 23.1094C17.7188 23.1094 17.6719 23.1094 17.6719 23.0625L16.6875 20.4375C16.6875 20.3906 16.6875 20.3438 16.7344 20.3438L17.0625 20.25C17.1094 20.25 17.1562 20.25 17.1562 20.2969L18.1406 21.4687L17.6719 20.1094C17.6719 20.0625 17.6719 20.0156 17.7187 20.0156L18.1406 19.875C18.1406 19.875 18.1875 19.875 18.1875 19.9219ZM20.5312 21.6094L20.6719 22.0312C20.6719 22.0781 20.6719 22.125 20.625 22.125L19.6406 22.5C19.5938 22.5 19.5469 22.5 19.5469 22.4531L18.5625 19.8281C18.5625 19.7812 18.5625 19.7344 18.6094 19.7344L19.5937 19.3594C19.6406 19.3594 19.6875 19.3594 19.6875 19.4063L19.8281 19.8281C19.8281 19.875 19.8281 19.9219 19.7812 19.9219L19.2656 20.1094L19.4531 20.625L19.9219 20.4375C19.9688 20.4375 20.0156 20.4375 20.0156 20.4844L20.1562 20.9062C20.1562 20.9531 20.1563 21 20.1094 21L19.6406 21.1875L19.875 21.7969L20.3906 21.6094C20.4844 21.5625 20.5312 21.5625 20.5312 21.6094Z" fill="white"/>
<g opacity="0.5">
<path d="M11.9062 25.6875L26.1562 13.7344C25.4531 12.8906 25.3594 11.8125 25.7344 10.875C24.6094 10.8281 23.625 10.125 23.2031 9.04688L5.71875 15.375C6.23437 16.8281 5.48438 18.4219 4.03125 18.9844L5.10937 21.9844L7.92187 25.3594C9.14062 24.3281 10.875 24.5156 11.9062 25.6875Z" fill="#252525"/>
<path opacity="0.5" d="M11.9062 25.6875L26.1562 13.7344C25.4531 12.8906 25.3594 11.8125 25.7344 10.875C24.6094 10.8281 23.625 10.125 23.2031 9.04688L5.71875 15.375C6.23437 16.8281 5.48438 18.4219 4.03125 18.9844L5.10937 21.9844L7.92187 25.3594C9.14062 24.3281 10.875 24.5156 11.9062 25.6875Z" fill="#252525"/>
</g>
<path d="M24.6094 7.54688L23.8125 6.5625C23.5312 6.79688 23.1562 6.75 22.9219 6.46875C22.6875 6.1875 22.7344 5.8125 23.0156 5.57812L22.2188 4.59375C21.9375 4.82812 21.5625 4.78125 21.3281 4.5C21.0938 4.21875 21.1406 3.84375 21.4219 3.60938L20.625 2.625C20.3438 2.85938 19.9688 2.8125 19.7344 2.53125C19.4062 2.34375 19.4531 1.96875 19.6875 1.73438L18.8906 0.75C18.6094 0.984375 18.2344 0.9375 18 0.703125C16.875 1.26562 15.4688 1.03125 14.5781 0L0.328125 11.9531C1.35938 13.1719 1.17188 14.9531 0 15.9375L6.375 23.5781C7.54688 22.5938 9.32812 22.7344 10.3125 23.9062L24.5625 11.9531C23.7188 10.9219 23.7188 9.46875 24.4688 8.4375C24.3281 8.15625 24.375 7.78125 24.6094 7.54688Z" fill="url(#paint1_linear_3544_9896)"/>
<path d="M24.6094 7.54688L23.8125 6.5625C23.5312 6.79688 23.1562 6.75 22.9219 6.46875C22.6875 6.1875 22.7344 5.8125 23.0156 5.57812L22.2188 4.59375C21.9375 4.82812 21.5625 4.78125 21.3281 4.5C21.0938 4.21875 21.1406 3.84375 21.4219 3.60938L20.625 2.625C20.3438 2.85938 19.9688 2.8125 19.7344 2.53125C19.4062 2.34375 19.4531 1.96875 19.6875 1.73438L18.8906 0.75C18.6094 0.984375 18.2344 0.9375 18 0.703125C16.875 1.26562 15.4688 1.03125 14.5781 0L0.328125 11.9531C1.35938 13.1719 1.17188 14.9531 0 15.9375L6.375 23.5781C7.54688 22.5938 9.32812 22.7344 10.3125 23.9062L24.5625 11.9531C23.7188 10.9219 23.7188 9.46875 24.4688 8.4375C24.3281 8.15625 24.375 7.78125 24.6094 7.54688Z" fill="black" fill-opacity="0.2"/>
<path d="M22.1252 10.969L9.84396 21.2815C9.18771 21.844 8.20333 21.7502 7.64083 21.094L2.62521 15.094C2.06271 14.4377 2.15646 13.4533 2.81271 12.8908L15.094 2.57833C15.7502 2.01583 16.7346 2.10958 17.2971 2.76583L22.3127 8.76583C22.8752 9.42208 22.7815 10.4065 22.1252 10.969ZM3.32833 13.5002C3.00021 13.7815 2.95333 14.2502 3.23458 14.5783L8.25021 20.6252C8.53146 20.9533 9.00021 21.0002 9.32833 20.719L21.6096 10.4065C21.9377 10.1252 21.9846 9.65646 21.7033 9.32833L16.6877 3.28146C16.4065 2.95333 15.9377 2.90646 15.6096 3.18771L3.32833 13.5002Z" fill="white"/>
</g>
<defs>
<linearGradient id="paint0_linear_3544_9896" x1="17.0321" y1="30" x2="27.3543" y2="17.8973" gradientUnits="userSpaceOnUse">
<stop stop-color="#CC204A"/>
<stop offset="1" stop-color="#FD4E25"/>
</linearGradient>
<linearGradient id="paint1_linear_3544_9896" x1="12.3203" y1="23.9062" x2="24.2685" y2="12.2964" gradientUnits="userSpaceOnUse">
<stop stop-color="#CC204A"/>
<stop offset="1" stop-color="#FD4E25"/>
</linearGradient>
<clipPath id="clip0_3544_9896">
<rect width="30" height="30" fill="white"/>
</clipPath>
</defs>
</svg>
